<svg xmlns="http://www.w3.org/2000/svg" xmlns:xlink="http://www.w3.org/1999/xlink" viewBox="0 0 4680 3120"><defs><style>.cls-1{fill:#e9e7f2;}.cls-2{fill:#f27979;}.cls-3{fill:#f79292;}.cls-4{fill:#b2afc6;}.cls-5{fill:#cc5e12;}.cls-6{fill:#e8b470;}.cls-7{fill:#ffd89f;}.cls-8{fill:#4f4f99;}.cls-9{fill:#2a2a68;}.cls-10{fill:#4b8b99;}.cls-11{fill:#151547;}.cls-12{fill:#f8b396;}.cls-13{fill:#e84c43;}.cls-14{fill:#3e2a4d;}.cls-15{fill:#fff;}.cls-16{fill:#98c9d8;}.cls-17{fill:#38387f;}.cls-18{fill:#6363aa;}.cls-19{fill:#7566aa;}.cls-20{fill:#3b3360;}.cls-21{clip-path:url(#clip-path);}.cls-22{opacity:0.55;}.cls-23{fill:#c9c6e0;}.cls-24{fill:#b1afce;}.cls-25{clip-path:url(#clip-path-2);}.cls-26{opacity:0.65;}.cls-27{fill:#d34444;}.cls-28{fill:#842020;}.cls-29{clip-path:url(#clip-path-3);}.cls-30{fill:#19b295;}.cls-31{fill:#0a7762;}.cls-32{fill:#6ad8c3;}.cls-33{clip-path:url(#clip-path-4);}.cls-34{clip-path:url(#clip-path-5);}.cls-35{fill:#d66112;}.cls-36{fill:#f79737;}.cls-37{fill:#fcd0b1;}.cls-38{clip-path:url(#clip-path-6);}.cls-39{fill:#a0470a;}.cls-40{fill:#ffa466;}.cls-41{clip-path:url(#clip-path-7);}.cls-42{fill:#184951;}.cls-43{clip-path:url(#clip-path-8);}.cls-44{clip-path:url(#clip-path-9);}.cls-45{opacity:0.54;}.cls-46{fill:#7d7b9b;}.cls-47{clip-path:url(#clip-path-10);}.cls-48{opacity:0.7;}.cls-49{clip-path:url(#clip-path-11);}.cls-50{clip-path:url(#clip-path-12);}.cls-51{clip-path:url(#clip-path-13);}.cls-52{clip-path:url(#clip-path-14);}.cls-53{clip-path:url(#clip-path-15);}.cls-54{clip-path:url(#clip-path-16);}.cls-55{clip-path:url(#clip-path-17);}.cls-56{clip-path:url(#clip-path-18);}.cls-57{clip-path:url(#clip-path-19);}.cls-58{clip-path:url(#clip-path-20);}.cls-59{clip-path:url(#clip-path-21);}.cls-60{clip-path:url(#clip-path-22);}.cls-61{clip-path:url(#clip-path-23);}.cls-62{clip-path:url(#clip-path-24);}.cls-63{fill:#fcca86;}.cls-64{fill:#e0993b;}.cls-65{fill:#ffeed7;}.cls-66{clip-path:url(#clip-path-25);}.cls-67{fill:#bab6d3;}.cls-68{fill:#ffc15a;}.cls-69{clip-path:url(#clip-path-26);}.cls-70{fill:#f29379;}.cls-71{clip-path:url(#clip-path-27);}.cls-72{fill:#3c3c82;}.cls-73{clip-path:url(#clip-path-28);}.cls-74{clip-path:url(#clip-path-29);}.cls-75{fill:#050519;}.cls-76{clip-path:url(#clip-path-30);}.cls-77{clip-path:url(#clip-path-31);}.cls-78{fill:#7f1714;}.cls-79{clip-path:url(#clip-path-32);}.cls-80{fill:#494984;}.cls-81{clip-path:url(#clip-path-33);}.cls-82{clip-path:url(#clip-path-34);}.cls-83{fill:#1e1328;}.cls-84{clip-path:url(#clip-path-35);}.cls-85{fill:#f79589;}.cls-86{fill:#492913;}.cls-87{clip-path:url(#clip-path-36);}.cls-88{opacity:0.43;}.cls-89{fill:#d65656;}.cls-90{clip-path:url(#clip-path-37);}.cls-91{clip-path:url(#clip-path-38);}.cls-92{clip-path:url(#clip-path-39);}.cls-93{clip-path:url(#clip-path-40);}.cls-94{fill:#4e4e9b;}.cls-95{clip-path:url(#clip-path-41);}.cls-96{fill:#a394cb;}.cls-97{clip-path:url(#clip-path-42);}.cls-98{fill:#55526d;}.cls-99{fill:#d3c9f4;}.cls-100{fill:#eeedf7;}</style><clipPath id="clip-path"><path class="cls-1" d="M1209.18,2682S758.83,2558.13,653,1803.79,997.52,718.44,1326.27,770.23c186.9,33.78,243.19,141.86,504.4-60.8s765.6-414.32,1238.47-322,943.48,466.12,925.47,1137.14S3697.38,2673,3697.38,2673Z"/></clipPath><clipPath id="clip-path-2"><path class="cls-2" d="M1246.9,2137.05s-37.16-251.63-180.71-513.4-87.81-353,16.89-347.9,177.33,233.06,202.66,363.1,38.84,337.76,38.84,337.76Z"/></clipPath><clipPath id="clip-path-3"><path class="cls-3" d="M1240.71,2257.52s-126.1,31.52-260.08-136.23-186.9-465-186.9-465,229.68,112.59,327.63,243.19S1240.71,2257.52,1240.71,2257.52Z"/></clipPath><clipPath id="clip-path-4"><path class="cls-2" d="M3323.58,1772.26s-27-197,11.26-396.3,200.41-433.47,293.86-408.7-24.77,206-49.54,257.83-127.22,221.8-135.11,541.55C3400.14,1784.65,3323.58,1772.26,3323.58,1772.26Z"/></clipPath><clipPath id="clip-path-5"><path class="cls-3" d="M3444.05,1776.77s-15.76-126.1,82.19-391.81,306.24-386.17,421.08-388.43,107,85.57,74.31,128.35S3814.47,1317.41,3713.14,1484s-110.34,281.47-110.34,281.47Z"/></clipPath><clipPath id="clip-path-6"><path class="cls-5" d="M3550.73,2021.65h268.52a43.06,43.06,0,0,1,43.06,43.06v162.13a43.06,43.06,0,0,1-43.06,43.06H3550.73a124.13,124.13,0,0,1-124.13-124.13v0A124.13,124.13,0,0,1,3550.73,2021.65Z"/></clipPath><clipPath id="clip-path-7"><rect class="cls-10" x="1628.01" y="588.96" width="1628.02" height="2070.49" rx="158.75"/></clipPath><clipPath id="clip-path-8"><rect class="cls-16" x="1807.02" y="588.96" width="1628.02" height="2070.49" rx="158.75"/></clipPath><clipPath id="clip-path-9"><rect class="cls-4" x="1601.83" y="752.05" width="289.02" height="40.85" rx="20.43"/></clipPath><clipPath id="clip-path-10"><rect class="cls-4" x="1601.83" y="866.44" width="289.02" height="40.85" rx="20.43"/></clipPath><clipPath id="clip-path-11"><rect class="cls-4" x="1601.83" y="980.82" width="289.02" height="40.85" rx="20.43"/></clipPath><clipPath id="clip-path-12"><rect class="cls-4" x="1601.83" y="1095.2" width="289.02" height="40.85" rx="20.43"/></clipPath><clipPath id="clip-path-13"><rect class="cls-4" x="1601.83" y="1209.58" width="289.02" height="40.85" rx="20.43"/></clipPath><clipPath id="clip-path-14"><rect class="cls-4" x="1601.83" y="1323.97" width="289.02" height="40.85" rx="20.43"/></clipPath><clipPath id="clip-path-15"><rect class="cls-4" x="1601.83" y="1438.35" width="289.02" height="40.85" rx="20.43"/></clipPath><clipPath id="clip-path-16"><rect class="cls-4" x="1601.83" y="1552.73" width="289.02" height="40.85" rx="20.43"/></clipPath><clipPath id="clip-path-17"><rect class="cls-4" x="1601.83" y="1667.12" width="289.02" height="40.85" rx="20.43"/></clipPath><clipPath id="clip-path-18"><rect class="cls-4" x="1601.83" y="1781.5" width="289.02" height="40.85" rx="20.43"/></clipPath><clipPath id="clip-path-19"><rect class="cls-4" x="1601.83" y="1895.88" width="289.02" height="40.85" rx="20.43"/></clipPath><clipPath id="clip-path-20"><rect class="cls-4" x="1601.83" y="2010.27" width="289.02" height="40.85" rx="20.43"/></clipPath><clipPath id="clip-path-21"><rect class="cls-4" x="1601.83" y="2124.65" width="289.02" height="40.85" rx="20.43"/></clipPath><clipPath id="clip-path-22"><rect class="cls-4" x="1601.83" y="2239.03" width="289.02" height="40.85" rx="20.43"/></clipPath><clipPath id="clip-path-23"><rect class="cls-4" x="1601.83" y="2353.41" width="289.02" height="40.85" rx="20.43"/></clipPath><clipPath id="clip-path-24"><rect class="cls-4" x="1601.83" y="2467.8" width="289.02" height="40.85" rx="20.43"/></clipPath><clipPath id="clip-path-25"><ellipse class="cls-6" cx="1310.13" cy="2113.73" rx="211.67" ry="32.31"/></clipPath><clipPath id="clip-path-26"><rect class="cls-7" x="2889.56" y="2291.3" width="550.56" height="363.1" rx="46.44"/></clipPath><clipPath id="clip-path-27"><path class="cls-8" d="M2461.72,945.79s18-1.13,25.9,3.94,170.57,240.37,196.46,262.89,277,64.18,277,64.18,11.26,61.92-16.89,88.94c-128.35-4.5-287.1-38.28-309.61-45s-155.38-141.87-155.38-141.87Z"/></clipPath><clipPath id="clip-path-28"><path class="cls-9" d="M2465.07,1463.66s14.45,15.48,19.84,65.8,64,444.69,72.94,542.94,31.5,427,31.5,427l-132.12,14.13s-32.87-157-45.07-230.8-43.2-198.62-55.84-250.4-53.27-186.92-53.27-186.92-24.28,225.16-37.79,309.6c-8.58,53.63-36.88,332.42-36.88,332.42l-134.26-7.6s8.32-276.68,7.88-353c-.56-98.52-2.27-149.55-4.5-243.19-3.27-137.28-9.85-148.82-1.95-229.26s52.65-175.88,52.65-175.88Z"/></clipPath><clipPath id="clip-path-29"><path class="cls-11" d="M2533.71,1628.83s-224.67,9.8-230.66,216.55c6,210.51,66.63,730.11,66.63,730.11s225.34,97.83,231.56,80.33S2687,2536.54,2687,2536.54Z"/></clipPath><clipPath id="clip-path-30"><path class="cls-12" d="M2576.19,2529.34l7.83,59.16s135.7,20.3,154.78,32.83,18.61,57.21,2.82,72.64-256.58,35.67-277.35,17.8-8.71-52.2-1.8-83.69-5.84-93.14-5.84-93.14Z"/></clipPath><clipPath id="clip-path-31"><path class="cls-13" d="M2448.6,2576.91s20.22,23.25,70.32,21.85S2586,2586,2586,2586s199.42,14.2,207.36,31.62-5,126-7.73,131.72-100.18,40.25-100.18,40.25-172.31-28.08-195.68-29.42-79.37-20.72-70.91-38.8S2448.6,2576.91,2448.6,2576.91Z"/></clipPath><clipPath id="clip-path-32"><path class="cls-12" d="M2222,2524.41s.07,45.7,4.69,63,52.15,61.11,90.89,64.2,66.89,55.54,41.37,77.17-82.42,35.6-135.7,30-151.09-18.14-155.87-38.5,11.81-106.13,29.19-120.36,13.93-83.47,13.93-83.47Z"/></clipPath><clipPath id="clip-path-33"><path class="cls-12" d="M2286.81,810s7.27,39.09,0,91.68c11.77,15.57,43.94,27.34,86.85,8.31,0-19,.69-38.75.69-38.75Z"/></clipPath><clipPath id="clip-path-34"><path class="cls-14" d="M2437.49,742.53s46.19-20.24,51.9-75.25-35.29-59.16-57.61-65.91-24.65-42.56-76-42.56-52.42,40.74-82,36.59-70.32,40-59.94,87.45,16.87,132.08,67.73,133.63S2437.49,742.53,2437.49,742.53Z"/></clipPath><clipPath id="clip-path-35"><path class="cls-12" d="M2441.64,709.84s2.6,72.65-.52,119.36-41.52,74.21-84.59,61-66.69-50.6-66.69-67.21c-19.2,2.08-29.58-17.64-30.88-35.81s12.46-37.36,29.84-23.35c0-15.57,2.08-38.92,6.49-49.82s17.65-23.1,40-18.17,42.82,15,58.91,11.16S2434.89,690.37,2441.64,709.84Z"/></clipPath><clipPath id="clip-path-36"><path class="cls-15" d="M2330.41,910.16c12.6.84,37.54-10.55,43.94-9.86s9.86,27.85,3.28,32.87-34.59,8.65-49.13,7.44-42.72-9.52-48.26-19.9-.17-35.46,8.82-28.71S2314.84,909.12,2330.41,910.16Z"/></clipPath><clipPath id="clip-path-37"><path class="cls-8" d="M2250.66,912s80.46,140.79,97.91,233.67,20.27,316.94,20.27,316.94l-4.51,244.31s-174.51,14.64-277-50.66c16.89-116,51.79-240.94,59.67-281.47s-1.13-189.15-6.76-255.58-20-142.42-12.94-160.15,20.54-37.44,122.72-47Z"/></clipPath><clipPath id="clip-path-38"><path class="cls-17" d="M2392.8,915.7s-16.64,73.72-27.62,123.54S2350,1173.5,2350,1173.5l11,369.85,28.71,162.13s81.9,17.73,124.13-50.67c-13.52-173.1-20.27-266-18.58-295.54s11-194.22,11.82-249.1.28-152.37-21.86-168.14-63.8-27-91.2-26.27Z"/></clipPath><clipPath id="clip-path-39"><path class="cls-12" d="M2346.43,1352.56s25.54-6.43,32.35-10.74,8.76-9.85,35.47-31.81c13.7-11.26,24-25.72,32.84-34.62,9.66-9.76,18.91-5.91,16.89,16.32-1.13,12.39-14.36,39.41-14.36,39.41s45.77-.57,58.21,3.65,14.55,17.19,7.51,28.11,1.79,17.65-4.84,31.57-10.14,15.19-12.39,22.86-4.47,19-23.44,24.89-99.73-7-138.28-22.62C2331.12,1386.69,2346.43,1352.56,2346.43,1352.56Z"/></clipPath><clipPath id="clip-path-40"><path class="cls-18" d="M2157.17,958.17c24.58,16.34,40.53,109.78,25.33,154.25s-69.8,168.32-69.8,168.32,148.05,47.85,226.87,57.42c7.31,31,4.5,81.9-16.61,90.35-173.11-22.8-325.94-42.22-333.54-91.2s63.33-227.14,79.37-272.74S2112.7,928.62,2157.17,958.17Z"/></clipPath><clipPath id="clip-path-41"><rect class="cls-19" x="2801.18" y="564.11" width="526.91" height="720.56" rx="46.72"/></clipPath><clipPath id="clip-path-42"><rect class="cls-20" x="2827.07" y="618.16" width="450.35" height="170.01" rx="32.09"/></clipPath></defs><title>03</title><g id="_03" data-name="03"><rect id="_03-2" data-name="03" class="cls-15" width="4680" height="3120"/><path class="cls-1" d="M1209.18,2682S758.83,2558.13,653,1803.79,997.52,718.44,1326.27,770.23c186.9,33.78,243.19,141.86,504.4-60.8s765.6-414.32,1238.47-322,943.48,466.12,925.47,1137.14S3697.38,2673,3697.38,2673Z"/><g class="cls-21"><g class="cls-22"><path class="cls-23" d="M2076.91,2291.15c-1362.15,62.19-1499-653.09-1499-653.09l68.42,1032.5s2973.09,261.23,2991.75,261.23,491.37-634.42,491.37-634.42,242.57-522.47-37.32-989C4036.16,1694,3439.05,2229,2076.91,2291.15Z"/></g></g><g class="cls-22"><polygon class="cls-23" points="872.57 1307.84 844.19 1336.22 815.8 1307.84 791.48 1332.17 819.86 1360.56 791.48 1388.94 815.8 1413.27 844.19 1384.88 872.57 1413.27 896.9 1388.94 868.52 1360.56 896.9 1332.17 872.57 1307.84"/></g><g class="cls-22"><g class="cls-22"><path class="cls-24" d="M3650.31,818.3l-4-1.55a5.8,5.8,0,0,1-3.62-5.42c0-2.53-.08-5.06-.16-7.58a5.84,5.84,0,0,1,3.42-5.56c1.31-.59,2.64-1.15,3.95-1.74a4,4,0,0,0,2.67-4.63,1,1,0,0,1,0-.17l-3.78-8.65-.43-.48a4,4,0,0,0-4.52-1.06c-1.4.58-2.78,1.21-4.17,1.81A5.87,5.87,0,0,1,3633,782q-2.67-2.64-5.42-5.21a5.8,5.8,0,0,1-1.5-6.19c.53-1.38,1.08-2.75,1.62-4.13a4.05,4.05,0,0,0-2.47-5.66q-3.52-1.39-7.06-2.76a4,4,0,0,0-5.47,2.38c-.55,1.37-1.08,2.75-1.62,4.12a5.76,5.76,0,0,1-5.47,3.71c-2.53,0-5.06.07-7.58.16a5.87,5.87,0,0,1-5.5-3.33c-.61-1.35-1.19-2.71-1.79-4.06a4,4,0,0,0-4.69-2.65.55.55,0,0,1-.18,0l-8.54,3.74a10.67,10.67,0,0,0-1.28,1.42,3.75,3.75,0,0,0-.25,3.63c.58,1.38,1.19,2.74,1.79,4.12a5.79,5.79,0,0,1-1.27,6.69c-1.79,1.84-3.56,3.69-5.33,5.55a5.75,5.75,0,0,1-6,1.41c-1.44-.54-2.86-1.11-4.29-1.67a4,4,0,0,0-5.55,2.41c-.95,2.39-1.88,4.77-2.8,7.17a4,4,0,0,0,2.31,5.4c1.37.57,2.75,1.09,4.13,1.63a5.78,5.78,0,0,1,3.76,5.55c0,2.53.09,5.05.17,7.58a5.84,5.84,0,0,1-3.36,5.48c-1.31.59-2.64,1.15-3.95,1.73a4,4,0,0,0-2.7,4.72c0,.06,0,.12,0,.17l3.74,8.55a10.4,10.4,0,0,0,.72.76,3.84,3.84,0,0,0,4.22.78c1.47-.58,2.89-1.25,4.34-1.87a5.82,5.82,0,0,1,6.5,1.27c1.83,1.8,3.68,3.57,5.55,5.33a5.82,5.82,0,0,1,1.44,6.16c-.53,1.38-1.08,2.75-1.61,4.13a4.07,4.07,0,0,0,2.52,5.69l6.84,2.67a4.05,4.05,0,0,0,5.7-2.49c.52-1.34,1-2.68,1.57-4a5.76,5.76,0,0,1,5.43-3.61c2.56,0,5.12-.12,7.69-.15a5.49,5.49,0,0,1,5.22,3c.75,1.4,1.31,2.9,2,4.36a4.06,4.06,0,0,0,5.8,2.25L3627,855a4.06,4.06,0,0,0,2.28-5.78,46,46,0,0,1-2-4.79,5.4,5.4,0,0,1,1.43-5.49c1.83-1.93,3.7-3.83,5.53-5.76a5.81,5.81,0,0,1,6-1.39c1.37.51,2.72,1.07,4.07,1.61a4.09,4.09,0,0,0,5.79-2.5q1.34-3.4,2.66-6.79C3653.86,821.45,3652.94,819.34,3650.31,818.3Zm-39.65,8.52a20.18,20.18,0,1,1,10.48-26.59A20.17,20.17,0,0,1,3610.66,826.82Z"/></g><g class="cls-22"><path class="cls-24" d="M3743.33,856.79a4.64,4.64,0,0,0-4.87-2.43c-1.75.28-3.5.63-5.25.94a6.88,6.88,0,0,1-7.36-3.28q-2.34-3.74-4.78-7.4a6.8,6.8,0,0,1,0-7.48c1-1.44,2-2.85,3-4.27a4.76,4.76,0,0,0-1.29-7.13c-2.44-1.69-4.87-3.38-7.32-5a4.72,4.72,0,0,0-6.89,1.23c-1,1.42-2,2.85-3,4.28a6.8,6.8,0,0,1-7.25,2.75q-4.32-1-8.69-1.86a6.91,6.91,0,0,1-5.38-5.29c-.33-1.7-.62-3.41-.94-5.12a4.74,4.74,0,0,0-4.65-4.28l-.19-.06-10.77,2a13.33,13.33,0,0,0-1.84,1.27,4.47,4.47,0,0,0-1.27,4.08c.3,1.73.63,3.46.94,5.18a6.84,6.84,0,0,1-3.25,7.31q-3.81,2.42-7.58,4.89a6.74,6.74,0,0,1-7.25,0c-1.49-1-3-2-4.45-3.06a4.72,4.72,0,0,0-7,1.26q-2.58,3.69-5.13,7.42a4.68,4.68,0,0,0,1.19,6.79c1.4,1,2.84,2,4.26,3a6.8,6.8,0,0,1,2.81,7.36c-.67,2.88-1.27,5.78-1.85,8.69a6.88,6.88,0,0,1-5.32,5.35c-1.66.32-3.32.6-5,.91-2.73.51-4,1.89-4.35,4.66a1.39,1.39,0,0,1-.06.19q1,5.38,2,10.77a11.18,11.18,0,0,0,.61,1.06,4.52,4.52,0,0,0,4.61,2c1.83-.27,3.64-.65,5.46-1a6.86,6.86,0,0,1,7.08,3.2c1.59,2.55,3.23,5.08,4.89,7.59a6.81,6.81,0,0,1,0,7.42c-1,1.43-2,2.85-2.95,4.28a4.77,4.77,0,0,0,1.34,7.17l7.09,4.9c2.65,1.82,5.35,1.33,7.17-1.31,1-1.39,1.91-2.78,2.88-4.16a6.74,6.74,0,0,1,7.17-2.66c2.93.68,5.88,1.24,8.82,1.9a6.44,6.44,0,0,1,5.15,4.83c.48,1.8.72,3.67,1.06,5.5.6,3.16,2.85,4.72,6,4.15l8.48-1.55c3.17-.58,4.72-2.82,4.17-6a56.1,56.1,0,0,1-1-6,6.33,6.33,0,0,1,3.12-5.87c2.61-1.71,5.25-3.37,7.87-5.08a6.77,6.77,0,0,1,7.24,0c1.42,1,2.81,2,4.21,2.93,2.7,1.88,5.42,1.4,7.28-1.3l4.87-7c1.88-2.72,1.39-5.38-1.34-7.27-1.36-1-2.74-1.89-4.1-2.85a6.79,6.79,0,0,1-2.68-7.16c.67-2.89,1.28-5.79,1.86-8.69a6.89,6.89,0,0,1,5.41-5.43l5-.91a4.74,4.74,0,0,0,4.3-4.57.71.71,0,0,1,.08-.18q-1-5.45-2-10.9Zm-55,40.38a23.67,23.67,0,1,1,19.13-27.52A23.66,23.66,0,0,1,3688.29,897.17Z"/></g></g><g class="cls-22"><g class="cls-22"><path class="cls-24" d="M1259.56,1013.16a3.8,3.8,0,0,0-3.34-1.45c-1.49.09-3,.22-4.48.32a5.79,5.79,0,0,1-5.89-3.42c-1.14-2.3-2.3-4.59-3.46-6.87a5.76,5.76,0,0,1,.67-6.14c1-1.17,2-2.33,3-3.49a4,4,0,0,0-.42-6q-2.91-2.54-5.83-5a4,4,0,0,0-5.87.39c-1,1.1-1.94,2.23-2.9,3.34a5.78,5.78,0,0,1-6.49,1.71c-2.39-.83-4.79-1.61-7.2-2.36a5.85,5.85,0,0,1-4-5c-.12-1.43-.21-2.87-.32-4.3a4,4,0,0,0-3.55-4.12,1.15,1.15,0,0,1-.17-.06l-9.3.68c-.32.14-.65.25-1,.42a3.88,3.88,0,0,0-2.14,3.73c.06,1.57.22,3.14.33,4.71a5.83,5.83,0,0,1-3.36,5.71c-2.31,1.12-4.6,2.28-6.88,3.46a5.82,5.82,0,0,1-6.29-.69c-1.13-1-2.24-1.94-3.36-2.9a4.07,4.07,0,0,0-6.2.49l-4.8,5.57a4,4,0,0,0,.46,6.19l3.26,2.82a5.74,5.74,0,0,1,1.6,6.32c-.84,2.42-1.58,4.88-2.41,7.3a5.48,5.48,0,0,1-4.57,3.93c-1.57.25-3.17.27-4.76.4a4.07,4.07,0,0,0-4.06,4.72l.54,7.32a4.06,4.06,0,0,0,4.69,4.08,47.43,47.43,0,0,1,5.18-.27,5.38,5.38,0,0,1,4.69,3.18c1.22,2.37,2.38,4.76,3.59,7.13a5.77,5.77,0,0,1-.69,6.14c-.94,1.12-1.91,2.21-2.87,3.31a4.08,4.08,0,0,0,.44,6.29l5.51,4.76c2.14,1.84,4.43,1.67,6.29-.47l2.78-3.22a5.79,5.79,0,0,1,6.32-1.61c2.38.82,4.79,1.61,7.2,2.36a5.85,5.85,0,0,1,4.1,5.08c.12,1.44.21,2.87.33,4.31a4,4,0,0,0,3.48,4.06.5.5,0,0,1,.14.08l9.43-.69.58-.25a4,4,0,0,0,2.51-3.9c-.08-1.51-.21-3-.32-4.54a5.87,5.87,0,0,1,3.45-5.94q3.38-1.63,6.72-3.38a5.82,5.82,0,0,1,6.34.65c1.13,1,2.23,1.94,3.35,2.9a4.05,4.05,0,0,0,6.16-.44q2.49-2.87,5-5.74a4,4,0,0,0-.42-6c-1.11-1-2.24-1.93-3.35-2.9a5.78,5.78,0,0,1-1.67-6.4q1.23-3.59,2.36-7.2a5.9,5.9,0,0,1,5-4.08c1.47-.13,3-.22,4.42-.33a4,4,0,0,0,4-3.55s.05-.1.08-.16l-.69-9.3A10.4,10.4,0,0,0,1259.56,1013.16Zm-49.63,30.33a20.19,20.19,0,1,1,18.68-21.58A20.18,20.18,0,0,1,1209.93,1043.49Z"/></g><g class="cls-22"><path class="cls-24" d="M1177.17,1078c-1.73-.3-3.47-.56-5.2-.85a6.81,6.81,0,0,1-5.8-5.49q-1-4.4-2.1-8.78a6.75,6.75,0,0,1,2.43-6.82c1.44-1.08,2.91-2.12,4.37-3.18a4.72,4.72,0,0,0,1.14-7q-2.64-3.66-5.3-7.31a4.68,4.68,0,0,0-6.8-1.14c-1.42,1-2.81,2-4.22,3a6.79,6.79,0,0,1-7.87.19c-2.5-1.59-5-3.12-7.58-4.64a6.84,6.84,0,0,1-3.27-6.79c.25-1.67.53-3.33.79-5,.43-2.75-.44-4.41-2.94-5.65a1.77,1.77,0,0,1-.17-.12l-10.8-1.73a11.56,11.56,0,0,0-1.2.22,4.54,4.54,0,0,0-3.46,3.68c-.35,1.81-.59,3.64-.9,5.47a6.84,6.84,0,0,1-5.37,5.61c-2.94.65-5.86,1.35-8.78,2.09a6.83,6.83,0,0,1-7-2.49c-1-1.39-2-2.81-3.06-4.21-1.88-2.58-4.61-3-7.21-1.12l-7,5.06a4.76,4.76,0,0,0-1.15,7.2c1,1.36,2,2.73,3,4.1a6.75,6.75,0,0,1,.12,7.64c-1.61,2.54-3.12,5.14-4.72,7.69a6.46,6.46,0,0,1-6.27,3.25c-1.86-.15-3.7-.55-5.55-.83-3.17-.49-5.39,1.11-5.9,4.28q-.69,4.26-1.36,8.51c-.51,3.19,1.09,5.4,4.25,5.93a54.23,54.23,0,0,1,6,1.08,6.33,6.33,0,0,1,4.5,4.9c.75,3,1.43,6.07,2.18,9.11a6.79,6.79,0,0,1-2.45,6.82c-1.37,1-2.77,2-4.16,3-2.68,1.92-3.13,4.64-1.21,7.3,1.68,2.31,3.34,4.62,5,6.93,1.94,2.67,4.61,3.09,7.3,1.16l4-2.93a6.8,6.8,0,0,1,7.65-.14c2.5,1.59,5,3.13,7.57,4.65a6.86,6.86,0,0,1,3.32,6.9c-.25,1.67-.54,3.33-.79,5a4.73,4.73,0,0,0,2.88,5.57.92.92,0,0,1,.14.14l10.94,1.75.74-.12a4.63,4.63,0,0,0,3.91-3.78c.32-1.75.57-3.51.86-5.27a6.87,6.87,0,0,1,5.54-5.84c2.87-.65,5.73-1.32,8.58-2a6.81,6.81,0,0,1,7.06,2.45c1,1.4,2,2.81,3,4.22a4.76,4.76,0,0,0,7.16,1.15l7.19-5.21a4.72,4.72,0,0,0,1.13-6.91c-1-1.42-2-2.81-3.05-4.21a6.8,6.8,0,0,1-.18-7.76q2.38-3.75,4.65-7.57a6.89,6.89,0,0,1,6.78-3.32c1.71.25,3.42.55,5.13.82a4.75,4.75,0,0,0,5.59-3,1,1,0,0,1,.12-.16q.87-5.41,1.73-10.81a13,13,0,0,0-.59-2.16A4.42,4.42,0,0,0,1177.17,1078Zm-34.27,4.18a23.67,23.67,0,1,1-19.57-27.15A23.69,23.69,0,0,1,1142.9,1082.16Z"/></g></g><path class="cls-15" d="M3829.48,1509.13a57,57,0,1,0,0,80.6,56.6,56.6,0,0,0,0-80.6ZM3821.7,1582a46,46,0,1,1,0-65A45.67,45.67,0,0,1,3821.7,1582Z"/><path class="cls-23" d="M1035.2,1306a5,5,0,0,0,4.3-2.43c5.15-8.57,10.5-17,15.92-25.1a5,5,0,0,0-8.31-5.56c-5.51,8.21-10.95,16.8-16.19,25.51a5,5,0,0,0,4.28,7.58Z"/><path class="cls-23" d="M1041.35,2393.17a5,5,0,1,0-8.59,5.13c5.14,8.59,10.48,17.22,15.88,25.64a5,5,0,1,0,8.42-5.39C1051.72,2410.21,1046.43,2401.67,1041.35,2393.17Z"/><path class="cls-23" d="M1016.47,2349a5,5,0,0,0-8.84,4.67c4.68,8.85,9.56,17.75,14.5,26.44a5,5,0,1,0,8.69-4.94C1025.93,2366.51,1021.1,2357.71,1016.47,2349Z"/><path class="cls-23" d="M1068.52,2436a5,5,0,0,0-8.31,5.57c5.58,8.31,11.37,16.65,17.2,24.78a5,5,0,1,0,8.12-5.83C1079.76,2452.51,1074,2444.25,1068.52,2436Z"/><path class="cls-23" d="M1097.89,2477.41a5,5,0,0,0-8,6c6,8,12.21,16,18.47,23.85a5,5,0,1,0,7.81-6.24C1110,2493.27,1103.83,2485.32,1097.89,2477.41Z"/><path class="cls-23" d="M1084.68,1230.88a5,5,0,0,0-7,.71c-6.27,7.69-12.47,15.75-18.44,24a5,5,0,1,0,8.1,5.87c5.86-8.07,11.94-16,18.09-23.53A5,5,0,0,0,1084.68,1230.88Z"/><path class="cls-23" d="M966.3,2237.45c-3.48-9.26-6.86-18.71-10.07-28.09a5,5,0,1,0-9.46,3.23c3.24,9.48,6.66,19,10.17,28.38a5,5,0,0,0,4.68,3.24,5.16,5.16,0,0,0,1.76-.32A5,5,0,0,0,966.3,2237.45Z"/><path class="cls-23" d="M935.6,2140.8c-2.51-9.57-4.9-19.32-7.13-29a5,5,0,1,0-9.74,2.25c2.24,9.75,4.66,19.59,7.19,29.26a5,5,0,0,0,4.84,3.74,5.1,5.1,0,0,0,1.27-.17A5,5,0,0,0,935.6,2140.8Z"/><path class="cls-23" d="M920.13,2097.33a5,5,0,0,0,3.87-5.91c-2-9.68-3.92-19.54-5.66-29.3a5,5,0,1,0-9.84,1.75c1.75,9.86,3.67,19.81,5.71,29.59a5,5,0,0,0,4.89,4A4.57,4.57,0,0,0,920.13,2097.33Z"/><path class="cls-23" d="M910.72,2047.23a5,5,0,0,0,4.17-5.71c-1.54-9.76-3-19.7-4.22-29.55a5,5,0,0,0-9.92,1.28c1.28,9.93,2.71,20,4.26,29.82a5,5,0,0,0,4.93,4.22A5.12,5.12,0,0,0,910.72,2047.23Z"/><path class="cls-23" d="M1119.24,1193.47a5,5,0,0,0-7.07,0c-7.07,7-14.06,14.42-20.8,22a5,5,0,0,0,7.48,6.64c6.6-7.44,13.45-14.69,20.36-21.55A5,5,0,0,0,1119.24,1193.47Z"/><path class="cls-23" d="M903.79,1996.73a5,5,0,0,0,4.43-5.5c-1.06-9.82-2-19.82-2.8-29.72a5,5,0,0,0-10,.8c.81,10,1.76,20.08,2.83,30a5,5,0,0,0,5,4.46A5.07,5.07,0,0,0,903.79,1996.73Z"/><path class="cls-23" d="M985.39,2284.44c-4-9.07-7.85-18.33-11.53-27.52a5,5,0,1,0-9.28,3.72c3.72,9.28,7.63,18.64,11.64,27.81a5,5,0,0,0,4.59,3,5.13,5.13,0,0,0,2-.42A5,5,0,0,0,985.39,2284.44Z"/><path class="cls-23" d="M1006.91,2330.38c-4.43-8.85-8.79-17.9-12.95-26.89a5,5,0,0,0-9.08,4.2c4.21,9.09,8.61,18.23,13.09,27.17a5,5,0,0,0,8.94-4.48Z"/><path class="cls-23" d="M949.7,2189.52c-3-9.45-5.89-19.06-8.6-28.57a5,5,0,0,0-9.62,2.73c2.74,9.61,5.66,19.33,8.69,28.87a5,5,0,0,0,4.76,3.48,5.06,5.06,0,0,0,1.52-.23A5,5,0,0,0,949.7,2189.52Z"/><path class="cls-23" d="M1387,1065.69c-10.1,1.16-20.18,2.59-30,4.25a5,5,0,0,0,.83,9.93,4.78,4.78,0,0,0,.84-.08c9.6-1.62,19.49-3,29.42-4.17a5,5,0,1,0-1.14-9.93Z"/><path class="cls-23" d="M1438.25,1062c-10.17.34-20.32.91-30.17,1.69a5,5,0,0,0,.39,10l.41,0c9.69-.77,19.69-1.33,29.7-1.66a5,5,0,1,0-.33-10Z"/><path class="cls-23" d="M1540.76,1065.59c-10.12-1-20.23-1.8-30.07-2.42a5,5,0,1,0-.63,10c9.72.61,19.73,1.42,29.73,2.39a4,4,0,0,0,.49,0,5,5,0,0,0,.48-10Z"/><path class="cls-23" d="M1489.59,1062.11c-9.47-.36-18.94-.53-28.15-.53h-2a5,5,0,0,0,0,10h2c9.09,0,18.43.17,27.78.52h.19a5,5,0,0,0,.18-10Z"/><path class="cls-23" d="M1591.62,1071.9c-10-1.5-20.09-2.86-29.88-4a5,5,0,0,0-1.19,9.93c9.69,1.16,19.65,2.51,29.58,4a4.84,4.84,0,0,0,.75.06,5,5,0,0,0,.74-9.95Z"/><path class="cls-23" d="M1692.12,1091.4c-9.86-2.32-19.74-4.53-29.38-6.57a5,5,0,1,0-2.07,9.78c9.56,2,19.38,4.22,29.17,6.52a5,5,0,1,0,2.28-9.73Z"/><path class="cls-23" d="M1129.39,2517.21a5,5,0,1,0-7.67,6.41c6.44,7.7,13.07,15.4,19.7,22.86a5,5,0,1,0,7.47-6.65C1142.33,2532.45,1135.77,2524.84,1129.39,2517.21Z"/><path class="cls-23" d="M1642.08,1080.63c-9.95-2-19.92-3.76-29.63-5.4a5,5,0,1,0-1.67,9.86c9.63,1.62,19.52,3.43,29.39,5.35a5.2,5.2,0,0,0,1,.09,5,5,0,0,0,.95-9.9Z"/><path class="cls-23" d="M1336.26,1073.89c-9.94,2.1-19.84,4.5-29.43,7.14a5,5,0,0,0,1.33,9.82,5.13,5.13,0,0,0,1.33-.18c9.39-2.58,19.09-4.94,28.83-7a5,5,0,0,0-2.06-9.79Z"/><path class="cls-23" d="M1163,2555.3a5,5,0,1,0-7.32,6.81c6.83,7.35,13.86,14.68,20.89,21.78a5,5,0,0,0,7.11-7C1176.67,2569.83,1169.72,2562.58,1163,2555.3Z"/><path class="cls-23" d="M1259.05,2644.79c-7.6-6-15.34-12.44-23-19a5,5,0,1,0-6.51,7.58c7.77,6.68,15.61,13.16,23.31,19.28a5,5,0,0,0,6.22-7.83Z"/><path class="cls-23" d="M1198.51,2591.55a5,5,0,0,0-7,7.19c7.26,7,14.69,14,22.08,20.62a5,5,0,1,0,6.7-7.42C1213,2605.34,1205.69,2598.48,1198.51,2591.55Z"/><path class="cls-23" d="M1292.82,1090.32a5,5,0,0,0-6.3-3.21c-9.64,3.12-19.23,6.58-28.51,10.28a5,5,0,0,0,3.71,9.29c9.07-3.62,18.45-7,27.88-10.06A5,5,0,0,0,1292.82,1090.32Z"/><path class="cls-23" d="M1300,2674.6c-.09,0-9.21-5.74-24.38-17a5,5,0,1,0-6,8c15.56,11.59,24.7,17.29,25.08,17.53a5,5,0,1,0,5.28-8.5Z"/><path class="cls-23" d="M1008.43,1350.15a4.89,4.89,0,0,0,2.24.54,5,5,0,0,0,4.48-2.76c4.5-9,9.18-17.8,13.92-26.3a5,5,0,0,0-8.74-4.87c-4.81,8.62-9.56,17.6-14.12,26.68A5,5,0,0,0,1008.43,1350.15Z"/><path class="cls-23" d="M3711.25,1161.83c3.8,9,7.54,18.3,11.11,27.67a5,5,0,0,0,4.67,3.23,5.09,5.09,0,0,0,1.78-.33,5,5,0,0,0,2.89-6.45c-3.61-9.49-7.39-18.91-11.24-28a5,5,0,1,0-9.21,3.89Z"/><path class="cls-23" d="M3690,1115.88c4.4,8.7,8.74,17.74,12.89,26.85a5,5,0,0,0,4.55,2.93,4.89,4.89,0,0,0,2.07-.45,5,5,0,0,0,2.48-6.62c-4.21-9.24-8.6-18.4-13.07-27.23a5,5,0,1,0-8.92,4.52Z"/><path class="cls-23" d="M3729.54,1209.11c3.26,9.23,6.45,18.75,9.47,28.29a5,5,0,0,0,4.76,3.49,5.27,5.27,0,0,0,1.51-.23,5,5,0,0,0,3.26-6.28c-3.05-9.64-6.27-19.26-9.57-28.6a5,5,0,1,0-9.43,3.33Z"/><path class="cls-23" d="M3591.34,975.3a5,5,0,0,0,7.14-7c-7.1-7.25-14.47-14.29-21.9-20.94a5,5,0,0,0-6.67,7.45C3577.18,961.32,3584.39,968.21,3591.34,975.3Z"/><path class="cls-23" d="M3624.73,1013.11a5,5,0,0,0,7.82-6.23c-6.33-7.94-12.91-15.72-19.56-23.12a5,5,0,1,0-7.43,6.68C3612.07,997.7,3618.52,1005.32,3624.73,1013.11Z"/><path class="cls-23" d="M3745.1,1257.38c2.76,9.41,5.44,19.09,8,28.77a5,5,0,1,0,9.67-2.53c-2.56-9.78-5.27-19.55-8.05-29a5,5,0,0,0-9.6,2.81Z"/><path class="cls-23" d="M3680.28,1097.43a5,5,0,0,0,4.39,2.61,4.93,4.93,0,0,0,2.39-.62,5,5,0,0,0,2-6.78c-4.86-8.92-9.94-17.73-15.08-26.19a5,5,0,1,0-8.55,5.19C3670.5,1080,3675.49,1088.65,3680.28,1097.43Z"/><path class="cls-23" d="M3654.31,1054a5,5,0,0,0,8.36-5.49c-5.57-8.49-11.37-16.85-17.25-24.85a5,5,0,1,0-8.06,5.92C3643.13,1037.48,3648.84,1045.69,3654.31,1054Z"/><path class="cls-23" d="M3761.86,1300.39a5,5,0,0,0-3.68,6c2.3,9.55,4.53,19.35,6.61,29.13a5,5,0,0,0,4.89,4,5.43,5.43,0,0,0,1.05-.11,5,5,0,0,0,3.84-5.94c-2.1-9.86-4.35-19.75-6.67-29.38A5,5,0,0,0,3761.86,1300.39Z"/><path class="cls-23" d="M3788.9,1450.9a5,5,0,0,0-4.39,5.55c1.15,9.78,2.21,19.79,3.17,29.73a5,5,0,0,0,5,4.52l.49,0a5,5,0,0,0,4.5-5.46c-1-10-2-20.08-3.19-29.94A5,5,0,0,0,3788.9,1450.9Z"/><path class="cls-23" d="M3797.67,1552.51a5,5,0,0,0-4.74,5.25c.51,9.84.93,19.9,1.27,29.89a5,5,0,0,0,5,4.83h.17a5,5,0,0,0,4.83-5.16c-.34-10-.76-20.17-1.27-30.07A5,5,0,0,0,3797.67,1552.51Z"/><path class="cls-23" d="M3789.55,1507c.81,9.8,1.54,19.83,2.18,29.83a5,5,0,0,0,5,4.68h.32a5,5,0,0,0,4.67-5.31c-.64-10.06-1.38-20.16-2.19-30a5,5,0,1,0-10,.82Z"/><path class="cls-23" d="M3781.89,1400.38a5,5,0,0,0-4.18,5.71c1.49,9.7,2.92,19.65,4.23,29.59a5,5,0,0,0,9.91-1.31c-1.32-10-2.75-20-4.26-29.81A5,5,0,0,0,3781.89,1400.38Z"/><path class="cls-23" d="M3772.93,1350.17A5,5,0,0,0,3769,1356c1.88,9.64,3.69,19.53,5.37,29.39a5,5,0,0,0,4.93,4.16,4.76,4.76,0,0,0,.84-.07,5,5,0,0,0,4.09-5.77c-1.69-9.94-3.52-19.91-5.41-29.63A5,5,0,0,0,3772.93,1350.17Z"/><path class="cls-23" d="M899.42,1793.13h.34a5,5,0,0,0,5-4.65c.68-9.85,1.49-19.87,2.41-29.78a5,5,0,1,0-10-.93c-.93,10-1.74,20.09-2.43,30A5,5,0,0,0,899.42,1793.13Z"/><path class="cls-23" d="M910.05,1691.73a4.71,4.71,0,0,0,.74.06,5,5,0,0,0,4.94-4.27c1.44-9.78,3-19.71,4.68-29.52a5,5,0,1,0-9.86-1.68c-1.67,9.89-3.26,19.89-4.71,29.74A5,5,0,0,0,910.05,1691.73Z"/><path class="cls-23" d="M918.24,1641.41a5.69,5.69,0,0,0,.91.08,5,5,0,0,0,4.91-4.09l.87-4.64c1.56-8.32,3.19-16.63,4.85-24.71a5,5,0,0,0-9.8-2c-1.66,8.13-3.31,16.49-4.88,24.87l-.87,4.66A5,5,0,0,0,918.24,1641.41Z"/><path class="cls-23" d="M903.74,1742.34l.55,0a5,5,0,0,0,5-4.46c1.07-9.83,2.27-19.81,3.58-29.67a5,5,0,0,0-9.92-1.31c-1.31,9.93-2.52,20-3.6,29.9A5,5,0,0,0,903.74,1742.34Z"/><path class="cls-23" d="M897.16,1844.05h.14a5,5,0,0,0,5-4.87c.27-9.83.66-19.87,1.18-29.84a5,5,0,1,0-10-.52c-.53,10.05-.93,20.17-1.2,30.09A5,5,0,0,0,897.16,1844.05Z"/><path class="cls-23" d="M899,1946h.31a5,5,0,0,0,4.69-5.29c-.61-9.88-1.08-19.91-1.42-29.83a5,5,0,0,0-10,.35c.34,10,.83,20.12,1.44,30.09A5,5,0,0,0,899,1946Z"/><path class="cls-23" d="M897,1895h.08a5,5,0,0,0,4.92-5.08c-.1-6.11-.15-12.32-.15-18.47,0-3.78,0-7.57.06-11.39a5,5,0,0,0-10-.09q-.06,5.76-.06,11.48c0,6.2,0,12.47.15,18.64A5,5,0,0,0,897,1895Z"/><path class="cls-23" d="M928.16,1591.39a4.94,4.94,0,0,0,1.07.12,5,5,0,0,0,4.88-3.93c2.15-9.79,4.4-19.59,6.71-29.12a5,5,0,0,0-9.73-2.35c-2.31,9.6-4.59,19.47-6.75,29.33A5,5,0,0,0,928.16,1591.39Z"/><path class="cls-23" d="M953.37,1492.63a5.31,5.31,0,0,0,1.46.21,5,5,0,0,0,4.78-3.54c2.93-9.63,6-19.19,9.08-28.43a5,5,0,0,0-9.48-3.18c-3.13,9.33-6.21,19-9.17,28.7A5,5,0,0,0,953.37,1492.63Z"/><path class="cls-23" d="M1130.91,1187.55a5,5,0,0,0,3.36-1.29c7.33-6.64,14.94-13.07,22.61-19.12a5,5,0,0,0-6.19-7.86c-7.85,6.19-15.64,12.78-23.14,19.57a5,5,0,0,0,3.36,8.7Z"/><path class="cls-23" d="M1741.73,1103.92c-9.78-2.64-19.58-5.18-29.13-7.57a5,5,0,0,0-2.42,9.71c9.49,2.37,19.23,4.89,29,7.51a4.89,4.89,0,0,0,1.3.17,5,5,0,0,0,1.3-9.82Z"/><path class="cls-23" d="M1170.58,1155.63a4.94,4.94,0,0,0,2.89-.93c8-5.71,16.34-11.19,24.71-16.3a5,5,0,1,0-5.2-8.54c-8.58,5.23-17.09,10.85-25.31,16.69a5,5,0,0,0,2.91,9.08Z"/><path class="cls-23" d="M969.14,1444.15a4.92,4.92,0,0,0,1.68.3,5,5,0,0,0,4.71-3.32c3.38-9.44,6.92-18.83,10.51-27.91a5,5,0,0,0-9.3-3.67c-3.63,9.18-7.2,18.67-10.62,28.21A5,5,0,0,0,969.14,1444.15Z"/><path class="cls-23" d="M987.38,1396.56a5,5,0,0,0,6.56-2.65c3.91-9.25,8-18.41,12.11-27.22a5,5,0,1,0-9-4.24c-4.18,8.92-8.31,18.19-12.27,27.56A5,5,0,0,0,987.38,1396.56Z"/><path class="cls-23" d="M1213.79,1128.64a5,5,0,0,0,2.39-.61c8.6-4.68,17.52-9.13,26.5-13.22a5,5,0,0,0-4.15-9.1c-9.19,4.19-18.32,8.74-27.13,13.53a5,5,0,0,0,2.39,9.4Z"/><path class="cls-23" d="M939.8,1541.76a4.82,4.82,0,0,0,1.25.16,5,5,0,0,0,4.84-3.75c2.5-9.69,5.13-19.39,7.82-28.82a5,5,0,0,0-9.62-2.74c-2.71,9.51-5.36,19.29-7.88,29.06A5,5,0,0,0,939.8,1541.76Z"/><path class="cls-23" d="M3631,2499.51a5,5,0,0,0-6.51,2.78c-3.72,9.29-7.54,18.62-11.35,27.75a5,5,0,1,0,9.23,3.85c3.82-9.17,7.66-18.55,11.4-27.87A5,5,0,0,0,3631,2499.51Z"/><path class="cls-23" d="M3611.49,2546.75a5,5,0,0,0-6.56,2.63c-3.95,9.22-8,18.47-12,27.49a5,5,0,0,0,9.14,4.06c4-9.06,8.08-18.35,12-27.61A5,5,0,0,0,3611.49,2546.75Z"/><path class="cls-23" d="M3590.94,2593.55a5,5,0,0,0-6.62,2.47c-4.15,9.1-8.4,18.25-12.64,27.21a5,5,0,0,0,2.38,6.66,5.12,5.12,0,0,0,2.14.48,5,5,0,0,0,4.52-2.87c4.26-9,8.53-18.19,12.7-27.33A5,5,0,0,0,3590.94,2593.55Z"/><path class="cls-23" d="M3569.29,2639.85a5,5,0,0,0-6.68,2.31c-4.35,9-8.82,18-13.27,26.84a5,5,0,1,0,8.93,4.5c4.48-8.89,9-18,13.33-27A5,5,0,0,0,3569.29,2639.85Z"/><path class="cls-23" d="M3683,2355.49a5,5,0,0,0-6.31,3.19c-3.1,9.47-6.3,19-9.51,28.41a5,5,0,1,0,9.47,3.23c3.22-9.42,6.43-19,9.54-28.53A5,5,0,0,0,3683,2355.49Z"/><path class="cls-23" d="M3666.7,2403.85a5,5,0,0,0-6.37,3.06c-3.3,9.38-6.7,18.87-10.12,28.2a5,5,0,0,0,3,6.42,5,5,0,0,0,6.41-3c3.43-9.37,6.85-18.9,10.16-28.33A5,5,0,0,0,3666.7,2403.85Z"/><path class="cls-23" d="M3649.35,2451.87a5,5,0,0,0-6.43,2.92c-3.5,9.3-7.11,18.71-10.74,28a5,5,0,0,0,2.84,6.47,4.9,4.9,0,0,0,1.82.35,5,5,0,0,0,4.66-3.18c3.64-9.32,7.26-18.77,10.78-28.11A5,5,0,0,0,3649.35,2451.87Z"/><path class="cls-23" d="M3472.56,879.82a270.33,270.33,0,0,0-28.89-10,5,5,0,0,0-2.7,9.63,258.17,258.17,0,0,1,27.8,9.58,5,5,0,0,0,3.79-9.26Z"/><path class="cls-23" d="M3221.92,897.2c-8.84,4-18,8.4-27.23,13.1a5,5,0,1,0,4.54,8.91c9.08-4.63,18.1-9,26.81-12.9a5,5,0,1,0-4.12-9.11Z"/><path class="cls-23" d="M3557.27,942.47a5,5,0,0,0,3.16-8.88c-7.85-6.38-16-12.53-24.17-18.27a5,5,0,1,0-5.74,8.18c8,5.62,15.94,11.62,23.6,17.85A5,5,0,0,0,3557.27,942.47Z"/><path class="cls-23" d="M3371.2,860.24h0a286.82,286.82,0,0,0-30.43,1.9,5,5,0,0,0,.57,10,3.86,3.86,0,0,0,.58,0,277.1,277.1,0,0,1,29.36-1.84,5,5,0,0,0,0-10Z"/><path class="cls-23" d="M3269.79,878.33c-9.25,3.08-18.81,6.62-28.4,10.52a5,5,0,1,0,3.76,9.26c9.4-3.81,18.75-7.28,27.8-10.29a5,5,0,0,0-3.16-9.49Z"/><path class="cls-23" d="M3518.58,903.57c-8.76-5.48-17.69-10.5-26.57-14.92a5,5,0,0,0-4.46,9c8.59,4.28,17.24,9.14,25.72,14.44a5,5,0,0,0,5.31-8.47Z"/><path class="cls-23" d="M3422.85,864.93a256.06,256.06,0,0,0-30.3-4,5,5,0,1,0-.73,10,248.83,248.83,0,0,1,29.13,3.86,5.17,5.17,0,0,0,1,.09,5,5,0,0,0,.95-9.91Z"/><path class="cls-23" d="M3698.29,2306.81a5,5,0,0,0-6.24,3.32c-2.9,9.53-5.9,19.15-8.91,28.6a5,5,0,0,0,9.53,3c3-9.49,6-19.15,8.94-28.71A5,5,0,0,0,3698.29,2306.81Z"/><path class="cls-23" d="M3319.68,865.31c-9.66,1.79-19.61,4.09-29.58,6.84a5,5,0,0,0,1.33,9.82,5.07,5.07,0,0,0,1.33-.18c9.69-2.67,19.36-4.91,28.74-6.64a5,5,0,1,0-1.82-9.84Z"/><path class="cls-23" d="M3793.72,1807.32a5,5,0,0,0-5.39,4.58c-.81,9.9-1.7,19.93-2.65,29.81a5,5,0,0,0,4.5,5.46l.48,0a5,5,0,0,0,5-4.52c1-9.93,1.84-20,2.66-30A5,5,0,0,0,3793.72,1807.32Z"/><path class="cls-23" d="M3789.08,1858.12a5,5,0,0,0-5.49,4.44c-1,9.86-2.17,19.87-3.34,29.75a5,5,0,0,0,4.38,5.56,5.85,5.85,0,0,0,.59,0,5,5,0,0,0,5-4.41c1.18-9.93,2.31-20,3.35-29.89A5,5,0,0,0,3789.08,1858.12Z"/><path class="cls-23" d="M3712.54,2257.84a5,5,0,0,0-6.17,3.45c-2.69,9.55-5.49,19.23-8.3,28.77a5,5,0,0,0,3.38,6.21,5,5,0,0,0,1.41.2,5,5,0,0,0,4.8-3.58c2.82-9.58,5.63-19.29,8.33-28.88A5,5,0,0,0,3712.54,2257.84Z"/><path class="cls-23" d="M3783.28,1908.79a5,5,0,0,0-5.6,4.32c-1.26,9.84-2.6,19.8-4,29.6a5,5,0,0,0,4.25,5.65,5.78,5.78,0,0,0,.71.05,5,5,0,0,0,4.94-4.3c1.4-9.85,2.75-19.85,4-29.73A5,5,0,0,0,3783.28,1908.79Z"/><path class="cls-23" d="M3799.33,1705.47a5,5,0,0,0-5.16,4.84c-.32,9.91-.72,20-1.2,29.9a5,5,0,0,0,4.76,5.24h.24a5,5,0,0,0,5-4.76c.48-10,.88-20.1,1.21-30.06A5,5,0,0,0,3799.33,1705.47Z"/><path class="cls-23" d="M3799.66,1603.48a5,5,0,0,0-4.89,5.11c.22,9.87.35,19.94.4,29.91a5,5,0,0,0,5,5h0a5,5,0,0,0,5-5c-.05-10-.19-20.15-.4-30.08A5,5,0,0,0,3799.66,1603.48Z"/><path class="cls-23" d="M3800.19,1654.48h0a5,5,0,0,0-5,5c-.06,9.86-.2,19.93-.42,29.92a5,5,0,0,0,4.89,5.11h.11a5,5,0,0,0,5-4.89c.22-10,.36-20.16.42-30.08A5,5,0,0,0,3800.19,1654.48Z"/><path class="cls-23" d="M3797.15,1756.43a5,5,0,0,0-5.27,4.71c-.58,9.88-1.23,19.93-1.94,29.87a5,5,0,0,0,4.62,5.34l.37,0a5,5,0,0,0,5-4.65c.72-10,1.37-20.08,2-30A5,5,0,0,0,3797.15,1756.43Z"/><path class="cls-23" d="M3738,2159.12a5,5,0,0,0-6,3.71c-2.31,9.71-4.7,19.49-7.1,29.06a5,5,0,0,0,3.63,6.07,5.15,5.15,0,0,0,1.22.15,5,5,0,0,0,4.85-3.78c2.41-9.61,4.81-19.43,7.13-29.19A5,5,0,0,0,3738,2159.12Z"/><path class="cls-23" d="M3749.15,2109.42a5,5,0,0,0-6,3.83c-2.1,9.73-4.28,19.55-6.49,29.19a5,5,0,0,0,3.76,6,4.76,4.76,0,0,0,1.12.13,5,5,0,0,0,4.87-3.88c2.21-9.69,4.41-19.55,6.52-29.32A5,5,0,0,0,3749.15,2109.42Z"/><path class="cls-23" d="M3725.77,2208.6a5,5,0,0,0-6.1,3.58c-2.5,9.65-5.1,19.38-7.7,28.92a5,5,0,0,0,9.65,2.64c2.61-9.59,5.21-19.36,7.73-29A5,5,0,0,0,3725.77,2208.6Z"/><path class="cls-23" d="M3776.37,1959.18a5,5,0,0,0-5.69,4.2c-1.48,9.79-3,19.72-4.64,29.51a5,5,0,0,0,4.13,5.74,4.51,4.51,0,0,0,.81.07,5,5,0,0,0,4.93-4.2c1.61-9.83,3.18-19.8,4.66-29.63A5,5,0,0,0,3776.37,1959.18Z"/><path class="cls-23" d="M3759.28,2059.52a5,5,0,0,0-5.86,3.95c-1.9,9.76-3.88,19.62-5.89,29.31a5,5,0,1,0,9.8,2c2-9.73,4-19.63,5.9-29.43A5,5,0,0,0,3759.28,2059.52Z"/><path class="cls-23" d="M3768.36,2009.43a5,5,0,0,0-5.78,4.08c-1.69,9.79-3.46,19.68-5.26,29.41a5,5,0,0,0,4,5.83,4.84,4.84,0,0,0,.92.08,5,5,0,0,0,4.91-4.08c1.81-9.77,3.59-19.71,5.29-29.54A5,5,0,0,0,3768.36,2009.43Z"/><path class="cls-23" d="M3004.64,1031.91q-12.15,8.7-24.39,17.53a5,5,0,0,0,5.84,8.12q12.24-8.82,24.37-17.52a5,5,0,0,0-5.82-8.13Z"/><path class="cls-23" d="M3176,920.16c-8.5,4.62-17.33,9.63-26.25,14.87a5,5,0,0,0,2.54,9.31,5,5,0,0,0,2.53-.69c8.83-5.19,17.56-10.14,26-14.71a5,5,0,1,0-4.78-8.78Z"/><path class="cls-23" d="M2267.88,1296.53c-9.51-2.34-19.16-5-28.69-7.84a5,5,0,1,0-2.87,9.58c9.68,2.91,19.5,5.59,29.18,8a5.44,5.44,0,0,0,1.19.14,5,5,0,0,0,1.19-9.85Z"/><path class="cls-23" d="M2219.35,1282.36c-9.27-3.13-18.68-6.55-28-10.18a5,5,0,0,0-3.63,9.32c9.42,3.68,19,7.16,28.4,10.34a5,5,0,0,0,6.34-3.14A5,5,0,0,0,2219.35,1282.36Z"/><path class="cls-23" d="M2367.7,1311.61c-9.84-.56-19.8-1.4-29.62-2.51A5,5,0,0,0,2337,1319c10,1.13,20.15,2,30.17,2.55h.29a5,5,0,0,0,.28-10Z"/><path class="cls-23" d="M2468.48,1307.81c-9.82,1.29-19.76,2.32-29.54,3.07a5,5,0,0,0,.38,10l.39,0c9.95-.76,20.07-1.81,30.06-3.12a5,5,0,0,0-1.29-9.92Z"/><path class="cls-23" d="M2172.09,1264.3c-3.06-1.31-6.15-2.65-9.19-4q-9.12-4-18.23-8a5,5,0,0,0-4,9.15q9.07,4,18.19,8c3.09,1.37,6.23,2.73,9.33,4.06a5,5,0,1,0,3.92-9.2Z"/><path class="cls-23" d="M2418.19,1312.07c-9.87.38-19.86.48-29.69.31h-.09a5,5,0,0,0-.09,10c3.14,0,6.33.08,9.47.08,6.89,0,13.88-.13,20.78-.4a5,5,0,1,0-.38-10Z"/><path class="cls-23" d="M1839.69,1133.23c-9.61-3.14-19.25-6.22-28.64-9.14a5,5,0,0,0-3,9.54c9.35,2.92,19,6,28.52,9.11a4.93,4.93,0,0,0,1.55.25,5,5,0,0,0,1.55-9.76Z"/><path class="cls-23" d="M1888.1,1149.65c-9.54-3.35-19.1-6.64-28.43-9.78a5,5,0,1,0-3.2,9.47c9.3,3.13,18.82,6.41,28.32,9.74a5,5,0,1,0,3.31-9.43Z"/><path class="cls-23" d="M2125.41,1243.83c-9.23-4-18.51-8-27.58-11.89a5,5,0,0,0-3.93,9.2c9,3.86,18.31,7.85,27.53,11.86a5,5,0,1,0,4-9.17Z"/><path class="cls-23" d="M2518.27,1299.05c-9.72,2.15-19.56,4.06-29.22,5.69a5,5,0,0,0,.82,9.93,6.07,6.07,0,0,0,.84-.07c9.83-1.66,19.83-3.6,29.72-5.78a5,5,0,0,0-2.16-9.77Z"/><path class="cls-23" d="M1936.15,1167c-9.48-3.52-19-7-28.23-10.33a5,5,0,1,0-3.39,9.41c9.23,3.32,18.69,6.78,28.13,10.29a4.82,4.82,0,0,0,1.74.32,5,5,0,0,0,1.75-9.69Z"/><path class="cls-23" d="M2078.48,1223.72c-9.31-3.93-18.64-7.82-27.72-11.58a5,5,0,0,0-3.82,9.25c9.06,3.74,18.36,7.62,27.66,11.55a5.09,5.09,0,0,0,1.94.39,5,5,0,0,0,1.94-9.61Z"/><path class="cls-23" d="M2031.31,1204.16c-9.38-3.82-18.76-7.59-27.87-11.22a5,5,0,0,0-3.69,9.29c9.08,3.62,18.43,7.38,27.79,11.19a5,5,0,1,0,3.77-9.26Z"/><path class="cls-23" d="M1983.88,1185.23c-9.42-3.68-18.85-7.31-28-10.81a5,5,0,0,0-3.56,9.35c9.17,3.48,18.57,7.11,28,10.77a4.81,4.81,0,0,0,1.81.35,5,5,0,0,0,1.83-9.66Z"/><path class="cls-23" d="M2317.44,1306.38c-9.7-1.48-19.55-3.24-29.26-5.26a5,5,0,0,0-2,9.8c9.89,2,19.91,3.84,29.79,5.34a4.87,4.87,0,0,0,.76.06,5,5,0,0,0,.74-9.94Z"/><path class="cls-23" d="M1790.91,1117.93c-9.69-2.91-19.4-5.74-28.88-8.41a5,5,0,0,0-2.72,9.62c9.43,2.66,19.09,5.48,28.73,8.37a5.12,5.12,0,0,0,1.44.21,5,5,0,0,0,1.43-9.79Z"/><path class="cls-23" d="M2963.2,1061.73q-12.12,8.73-24.36,17.53a5,5,0,1,0,5.83,8.12q12.26-8.79,24.38-17.54a5,5,0,1,0-5.85-8.11Z"/><path class="cls-23" d="M2880.1,1120.83c-8.52,5.91-16.85,11.63-24.77,17a5,5,0,0,0,5.61,8.28c7.95-5.39,16.31-11.13,24.87-17.07a5,5,0,1,0-5.71-8.21Z"/><path class="cls-23" d="M2921.77,1091.47c-8.76,6.25-16.76,11.92-24.47,17.34a5,5,0,1,0,5.75,8.18c7.73-5.44,15.75-11.12,24.53-17.37a5,5,0,0,0-5.81-8.15Z"/><path class="cls-23" d="M2567.18,1286.19c-9.54,2.91-19.18,5.61-28.64,8a5,5,0,0,0,1.24,9.84,4.85,4.85,0,0,0,1.24-.16c9.61-2.46,19.39-5.2,29.08-8.16a5,5,0,1,0-2.92-9.56Z"/><path class="cls-23" d="M3131.66,945.91c-8.18,5-16.76,10.44-25.48,16.08a5,5,0,0,0,5.43,8.4c8.66-5.6,17.17-11,25.29-16a5,5,0,1,0-5.24-8.52Z"/><path class="cls-23" d="M3088.56,973.54c-7.91,5.26-16.3,10.93-24.93,16.86a5,5,0,0,0,2.84,9.12,4.92,4.92,0,0,0,2.82-.88c8.59-5.89,16.94-11.54,24.81-16.77a5,5,0,0,0-5.54-8.33Z"/><path class="cls-23" d="M3046.33,1002.38c-7.73,5.39-15.77,11.06-24.57,17.32a5,5,0,0,0,5.79,8.15c8.78-6.24,16.8-11.89,24.5-17.27a5,5,0,0,0-5.72-8.2Z"/><path class="cls-23" d="M2707.1,1227.85c-8.92,4.64-17.88,9.14-26.63,13.38a5,5,0,1,0,4.35,9c8.84-4.28,17.89-8.82,26.9-13.51a5,5,0,0,0-4.62-8.87Z"/><path class="cls-23" d="M2661.6,1250.09c-9.12,4.16-18.3,8.16-27.29,11.89a5,5,0,1,0,3.83,9.23c9.09-3.77,18.38-7.81,27.61-12a5,5,0,1,0-4.15-9.1Z"/><path class="cls-23" d="M2615,1269.7c-9.35,3.59-18.76,7-28,10.11a5,5,0,1,0,3.2,9.47c9.35-3.16,18.89-6.61,28.36-10.25a5,5,0,1,0-3.58-9.33Z"/><path class="cls-23" d="M2795.09,1177.19c-8.61,5.39-17.19,10.64-25.51,15.62a5,5,0,1,0,5.13,8.58c8.38-5,17-10.3,25.68-15.72a5,5,0,0,0-5.3-8.48Z"/><path class="cls-23" d="M2751.55,1203.41c-8.75,5.06-17.51,10-26,14.62a5,5,0,1,0,4.78,8.78c8.6-4.68,17.43-9.64,26.25-14.74a5,5,0,0,0-5-8.66Z"/><path class="cls-23" d="M2837.88,1149.55c-8.51,5.66-17,11.18-25.09,16.41a5,5,0,1,0,5.41,8.41c8.18-5.25,16.66-10.8,25.22-16.49a5,5,0,0,0-5.54-8.33Z"/><path class="cls-1" d="M1540.19,425.15C1389.89,388,1281.8,438.66,1270,548.43s95.7,210.54,306.24,193.09c89.87-7.45,453.73-181.27,403.06-326.5S1690.5,462.3,1540.19,425.15Z"/><path class="cls-2" d="M1246.9,2137.05s-37.16-251.63-180.71-513.4-87.81-353,16.89-347.9,177.33,233.06,202.66,363.1,38.84,337.76,38.84,337.76Z"/><g class="cls-25"><g class="cls-26"><path class="cls-27" d="M1041.3,1628.73s158.61,525.58,155.5,559.79,180.37,37.32,195.92,40.43-3.11-220.81,71.53-447.83C1227.9,1961.49,1041.3,1628.73,1041.3,1628.73Z"/></g><path class="cls-28" d="M1277.31,1905.9c-1.16-7.64-2.48-15.24-3.72-22.87l-1.92-11.42-2.06-11.4c-1.4-7.59-2.68-15.21-4.18-22.78l-4.4-22.75c-1.48-7.59-3.18-15.13-4.76-22.69l-2.41-11.33-2.6-11.3-2.6-11.3c-.88-3.76-1.68-7.53-2.66-11.29l-2.84-11.28c-1-3.75-2.05-7.48-3.07-11.22-17-59.65-40.15-117.21-66.06-173.29-6.52-14-13.1-28-20-41.8s-13.88-27.59-21.06-41.26-14.55-27.23-22.1-40.69c-3.79-6.73-7.59-13.44-11.46-20.12s-7.81-13.31-11.82-19.9c3.66,6.79,7.23,13.63,10.77,20.48s7.08,13.7,10.56,20.58c7,13.75,13.86,27.54,20.56,41.42q20.25,41.57,38.88,83.85l4.61,10.58,4.53,10.63c3,7.07,6,14.19,8.94,21.28,5.82,14.25,11.52,28.54,16.9,43s10.67,28.84,15.49,43.43c2.5,7.27,4.75,14.61,7.09,21.93l3.3,11,1.64,5.52,1.53,5.54c1,3.7,2.09,7.39,3.07,11.09l2.86,11.14c1,3.7,1.79,7.48,2.69,11.21l2.63,11.24,2.63,11.24,2.46,11.28,4.88,22.57c6.41,30.12,12,60.42,17.54,90.73l4,22.77,3.8,22.8q3.78,22.8,7.26,45.66,7.1,45.71,13,91.6c-2.23-30.78-5.52-61.48-9.16-92.13S1282.2,1936.39,1277.31,1905.9Z"/></g><path class="cls-3" d="M1240.71,2257.52s-126.1,31.52-260.08-136.23-186.9-465-186.9-465,229.68,112.59,327.63,243.19S1240.71,2257.52,1240.71,2257.52Z"/><g class="cls-29"><path class="cls-28" d="M1145.29,2094.83c-6.23-10.92-12.48-21.82-18.63-32.78l-18.53-32.83c-3-5.47-6.27-11-9.41-16.46-1.61-2.72-3.28-5.41-4.91-8.12s-3.26-5.43-5-8.07c-27.23-42.68-58.84-82.31-93-119.42-17-18.6-34.8-36.51-53-53.9s-37.06-34.16-56.75-49.86q27.8,25.54,54,52.64,13.16,13.48,25.94,27.31t25.21,28l6.18,7.1,6.09,7.16c4.1,4.75,8.07,9.6,12.11,14.4s8,9.68,11.82,14.62l5.83,7.37,5.72,7.45c15.29,19.84,29.75,40.31,43.11,61.45,1.72,2.61,3.33,5.29,5,8s3.29,5.32,4.89,8c3.13,5.42,6.3,10.75,9.4,16.25,6.24,10.94,12.41,21.91,18.77,32.77,12.7,21.73,25.47,43.43,38.65,64.88q9.84,16.11,19.83,32.13l10.08,16,10.15,15.92c13.68,21.12,27.47,42.19,41.91,62.81q-38.87-64.72-76.6-130Z"/></g><rect class="cls-30" x="1267.73" y="1249.86" width="660.42" height="1402.79"/><path class="cls-31" d="M1290.93,1524.93c0-139.27,112.9-252.18,252.17-252.18H1290.93Z"/><path class="cls-31" d="M1904.92,1524.93V1272.75H1652.75C1792,1272.75,1904.92,1385.66,1904.92,1524.93Z"/><path class="cls-31" d="M1290.93,2375v252.18H1543.1C1403.83,2627.14,1290.93,2514.24,1290.93,2375Z"/><path class="cls-31" d="M1652.75,2627.14h252.17V2375C1904.92,2514.24,1792,2627.14,1652.75,2627.14Z"/><path class="cls-32" d="M1595.53,1451.12h0c-148.22,0-268.38,120.15-268.38,268.37v439.42c0,148.22,120.16,268.38,268.38,268.38h0c148.22,0,268.37-120.16,268.37-268.38V1719.49C1863.9,1571.27,1743.75,1451.12,1595.53,1451.12Zm225.61,707.65c0,124.6-101,225.61-225.61,225.61s-225.61-101-225.61-225.61V1719.63c0-124.6,101-225.61,225.61-225.61s225.61,101,225.61,225.61Z"/><circle class="cls-32" cx="1593.72" cy="1959.69" r="173.54" transform="translate(-918.92 1700.91) rotate(-45)"/><path class="cls-2" d="M3323.58,1772.26s-27-197,11.26-396.3,200.41-433.47,293.86-408.7-24.77,206-49.54,257.83-127.22,221.8-135.11,541.55C3400.14,1784.65,3323.58,1772.26,3323.58,1772.26Z"/><g class="cls-33"><g class="cls-26"><path class="cls-27" d="M3274.23,1538.54s-164.83,214.59-186.6,227,373.19,118.17,373.19,118.17,56-155.49,118.18-491.36C3457.71,1610.07,3274.23,1538.54,3274.23,1538.54Z"/></g><path class="cls-28" d="M3499.33,1140.48c-17.72,27.57-34.36,55.88-49.41,85-3.83,7.26-7.45,14.62-11.1,22-1.81,3.68-3.52,7.41-5.28,11.12l-2.62,5.57-2.52,5.62c-6.82,14.94-13.08,30.14-19,45.48l-4.34,11.54-4,11.66-2,5.83-1.88,5.88c-1.23,3.92-2.52,7.83-3.71,11.76-2.26,7.92-4.68,15.78-6.64,23.78l-1.55,6-.78,3-.69,3-2.74,12c-.48,2-.85,4-1.22,6l-1.13,6.05-2.26,12.12-2.26,12.11c-.68,4.05-1.24,8.11-1.86,12.17l-3.64,24.36-2.87,24.45c-3.42,32.64-6,65.36-6.89,98.14l-.42,12.29-.21,12.29c-.1,8.2-.37,16.39-.25,24.58s0,16.39.16,24.58l.53,24.56,1,24.55c.46,8.18.8,16.36,1.37,24.53,1,16.34,2.38,32.66,4.18,48.93q-.75-12.26-1.17-24.51l-.45-12.26-.34-12.26c-.22-8.17-.32-16.35-.49-24.52l-.15-24.52.14-24.51c.08-8.17.32-16.34.48-24.5s.52-16.33.78-24.49l.44-12.24.66-12.23.68-12.23c.24-4.07.4-8.15.76-12.21l1.81-24.42c.16-2,.27-4.07.47-6.1l.6-6.09,1.2-12.18,1.2-12.17c.17-2,.43-4.06.69-6.08l.77-6.07,3-24.28,3.7-24.16c.63-4,1.21-8.06,1.89-12.08l2.29-12,2.29-12,1.14-6c.37-2,.76-4,1.22-6l2.66-11.89.67-3,.75-3,1.51-5.9c1.9-7.9,4.27-15.69,6.47-23.51,1.16-3.9,2.42-7.77,3.63-11.65l1.83-5.82,2-5.77,4-11.55,4.19-11.47c5.68-15.26,11.72-30.39,18.31-45.3s13.41-29.72,20.67-44.32,14.82-29.07,22.7-43.37,16-28.44,24.48-42.42,17.15-27.82,26.11-41.48q6.72-10.26,13.69-20.35c4.63-6.74,9.32-13.44,14.2-20-10.36,12.67-20.19,25.78-29.71,39.11S3508.24,1126.73,3499.33,1140.48Z"/></g><path class="cls-3" d="M3444.05,1776.77s-15.76-126.1,82.19-391.81,306.24-386.17,421.08-388.43,107,85.57,74.31,128.35S3814.47,1317.41,3713.14,1484s-110.34,281.47-110.34,281.47Z"/><g class="cls-34"><path class="cls-28" d="M3828.16,1137.48q-21.66,16.76-42.23,34.89c-13.72,12.05-27,24.66-39.92,37.54-6.51,6.42-12.81,13-19.15,19.62s-12.44,13.4-18.44,20.3-12,13.83-17.9,20.78c-5.76,7.1-11.62,14.12-17.18,21.39-5.71,7.15-11.07,14.56-16.53,21.9-2.7,3.69-5.3,7.46-7.95,11.19l-4,5.6c-1.3,1.88-2.56,3.79-3.84,5.69l-7.65,11.39-7.38,11.58c-1.22,1.93-2.48,3.84-3.67,5.8l-3.55,5.87c-2.35,3.93-4.76,7.82-7.06,11.78a844.58,844.58,0,0,0-48.35,98.47c-7.08,16.86-13.55,34-19.66,51.19s-11.64,34.65-16.72,52.2a907.26,907.26,0,0,0-24.14,106.83c-2.91,18-5.25,36.13-6.91,54.3a516.39,516.39,0,0,0-2.38,54.62c.2-9.1.87-18.19,1.66-27.25s1.78-18.11,2.91-27.14c2.32-18,5.11-36,8.56-53.86s7.28-35.61,11.68-53.23,9.24-35.14,14.58-52.49l2-6.51,2.09-6.48c1.42-4.31,2.76-8.65,4.25-12.94l4.4-12.88c1.5-4.28,3.07-8.54,4.6-12.81,6.24-17,12.84-34,20-50.62,3.5-8.37,7.29-16.61,10.95-24.91,1.88-4.13,3.85-8.22,5.77-12.33l2.89-6.16c1-2,2-4.06,3-6.09l6.07-12.16c2.06-4,4.25-8,6.37-12l3.2-6c1.05-2,2.22-4,3.33-5.93l6.71-11.81a842.12,842.12,0,0,1,60.67-90.19c5.44-7.26,11.18-14.28,16.82-21.38,5.82-7,11.54-14,17.54-20.81s12-13.58,18.09-20.34,12.32-13.33,18.68-19.81a932.12,932.12,0,0,1,80.14-73.74q21.09-17.28,43.37-33c7.48-5.17,15-10.32,22.71-15.11s15.51-9.52,23.62-13.68c-16.55,7.66-32.25,17.06-47.57,27S3842.64,1126.35,3828.16,1137.48Z"/></g><rect class="cls-35" x="3030.86" y="1749.75" width="812.89" height="907.46" rx="118.5"/><rect class="cls-36" x="2949.79" y="1749.75" width="812.89" height="907.46" rx="118.5"/><path class="cls-37" d="M3109,1791.09h-12a4,4,0,0,0,0,8h12a4,4,0,0,0,0-8Z"/><path class="cls-37" d="M3086.08,2607.28a104.52,104.52,0,0,1-11.42-1.87,4,4,0,1,0-1.74,7.81,111,111,0,0,0,12.32,2,3,3,0,0,0,.42,0,4,4,0,0,0,.42-8Z"/><path class="cls-37" d="M3129.78,2607.86h-12a4,4,0,0,0,0,8h12a4,4,0,0,0,0-8Z"/><path class="cls-37" d="M3030.1,1818.64a4,4,0,0,0-5.65-.39,113,113,0,0,0-8.94,8.71,4,4,0,0,0,5.9,5.41,102.23,102.23,0,0,1,8.3-8.09A4,4,0,0,0,3030.1,1818.64Z"/><path class="cls-37" d="M3008.13,2556.5a4,4,0,0,0-6.93,4,111.44,111.44,0,0,0,6.85,10.43,4,4,0,1,0,6.43-4.76A101.38,101.38,0,0,1,3008.13,2556.5Z"/><path class="cls-37" d="M3064.15,1796.08a109,109,0,0,0-11.7,4.38,4,4,0,0,0,3.23,7.32,103.28,103.28,0,0,1,10.84-4.07,4,4,0,1,0-2.37-7.63Z"/><path class="cls-37" d="M3153.13,1791.09h-12a4,4,0,0,0,0,8h12a4,4,0,0,0,0-8Z"/><path class="cls-37" d="M3002.32,1852.58a4,4,0,0,0-5.33,1.9,108.28,108.28,0,0,0-4.69,11.58,4,4,0,0,0,2.49,5.07,3.93,3.93,0,0,0,1.29.22,4,4,0,0,0,3.79-2.71,100.92,100.92,0,0,1,4.35-10.74A4,4,0,0,0,3002.32,1852.58Z"/><path class="cls-37" d="M3285.58,1791.09h-12a4,4,0,0,0,0,8h12a4,4,0,0,0,0-8Z"/><path class="cls-37" d="M3329.72,1791.09h-12a4,4,0,0,0,0,8h12a4,4,0,0,0,0-8Z"/><path class="cls-37" d="M3262.22,2607.86h-12a4,4,0,0,0,0,8h12a4,4,0,0,0,0-8Z"/><path class="cls-37" d="M3241.43,1791.09h-12a4,4,0,0,0,0,8h12a4,4,0,0,0,0-8Z"/><path class="cls-37" d="M3197.28,1791.09h-12a4,4,0,0,0,0,8h12a4,4,0,0,0,0-8Z"/><path class="cls-37" d="M3173.93,2607.86h-12a4,4,0,0,0,0,8h12a4,4,0,0,0,0-8Z"/><path class="cls-37" d="M3218.07,2607.86h-12a4,4,0,0,0,0,8h12a4,4,0,0,0,0-8Z"/><path class="cls-37" d="M3306.37,2607.86h-12a4,4,0,0,0,0,8h12a4,4,0,0,0,0-8Z"/><path class="cls-37" d="M2990.41,2047.3a4,4,0,0,0,4-4v-12a4,4,0,0,0-8,0v12A4,4,0,0,0,2990.41,2047.3Z"/><path class="cls-37" d="M2990.41,2091.45a4,4,0,0,0,4-4v-12a4,4,0,0,0-8,0v12A4,4,0,0,0,2990.41,2091.45Z"/><path class="cls-37" d="M2990.41,2135.6a4,4,0,0,0,4-4v-12a4,4,0,1,0-8,0v12A4,4,0,0,0,2990.41,2135.6Z"/><path class="cls-37" d="M2990.41,2003.16a4,4,0,0,0,4-4v-12a4,4,0,0,0-8,0v12A4,4,0,0,0,2990.41,2003.16Z"/><path class="cls-37" d="M2990.41,2179.75a4,4,0,0,0,4-4v-12a4,4,0,0,0-8,0v12A4,4,0,0,0,2990.41,2179.75Z"/><path class="cls-37" d="M2990.41,1959a4,4,0,0,0,4-4v-12a4,4,0,0,0-8,0v12A4,4,0,0,0,2990.41,1959Z"/><path class="cls-37" d="M3717.44,1890.41a4,4,0,0,0,4,3.56,3.24,3.24,0,0,0,.44,0,4,4,0,0,0,3.54-4.41,110.14,110.14,0,0,0-2.06-12.31,4,4,0,1,0-7.8,1.76A103.83,103.83,0,0,1,3717.44,1890.41Z"/><path class="cls-37" d="M2990.41,1914.86a4,4,0,0,0,4-4v-9.11c0-.94,0-1.88,0-2.82a4,4,0,1,0-8-.22c0,1-.05,2-.05,3v9.11A4,4,0,0,0,2990.41,1914.86Z"/><path class="cls-37" d="M2995,2516.43a4,4,0,1,0-7.95.86,108.58,108.58,0,0,0,2,12.31,4,4,0,0,0,3.9,3.13,3.77,3.77,0,0,0,.88-.1,4,4,0,0,0,3-4.78A102.24,102.24,0,0,1,2995,2516.43Z"/><path class="cls-37" d="M2990.41,2444.63a4,4,0,0,0,4-4v-12a4,4,0,0,0-8,0v12A4,4,0,0,0,2990.41,2444.63Z"/><path class="cls-37" d="M2990.41,2400.48a4,4,0,0,0,4-4v-12a4,4,0,0,0-8,0v12A4,4,0,0,0,2990.41,2400.48Z"/><path class="cls-37" d="M2990.41,2488.78a4,4,0,0,0,4-4v-12a4,4,0,0,0-8,0v12A4,4,0,0,0,2990.41,2488.78Z"/><path class="cls-37" d="M2990.41,2312.19a4,4,0,0,0,4-4v-12a4,4,0,1,0-8,0v12A4,4,0,0,0,2990.41,2312.19Z"/><path class="cls-37" d="M2990.41,2268a4,4,0,0,0,4-4v-12a4,4,0,0,0-8,0v12A4,4,0,0,0,2990.41,2268Z"/><path class="cls-37" d="M2990.41,2356.34a4,4,0,0,0,4-4v-12a4,4,0,0,0-8,0v12A4,4,0,0,0,2990.41,2356.34Z"/><path class="cls-37" d="M2990.41,2223.89a4,4,0,0,0,4-4v-12a4,4,0,0,0-8,0v12A4,4,0,0,0,2990.41,2223.89Z"/><path class="cls-37" d="M3046,2594.26a104.77,104.77,0,0,1-9.7-6.33,4,4,0,0,0-4.74,6.44,112.23,112.23,0,0,0,10.45,6.83,4,4,0,1,0,4-6.94Z"/><path class="cls-37" d="M3722.06,2359.53a4,4,0,0,0-4,4v12a4,4,0,0,0,8,0v-12A4,4,0,0,0,3722.06,2359.53Z"/><path class="cls-37" d="M3722.06,2315.38a4,4,0,0,0-4,4v12a4,4,0,0,0,8,0v-12A4,4,0,0,0,3722.06,2315.38Z"/><path class="cls-37" d="M3722.06,2271.23a4,4,0,0,0-4,4v12a4,4,0,0,0,8,0v-12A4,4,0,0,0,3722.06,2271.23Z"/><path class="cls-37" d="M3722.06,2403.68a4,4,0,0,0-4,4v12a4,4,0,0,0,8,0v-12A4,4,0,0,0,3722.06,2403.68Z"/><path class="cls-37" d="M3722.06,2447.82a4,4,0,0,0-4,4v12a4,4,0,0,0,8,0v-12A4,4,0,0,0,3722.06,2447.82Z"/><path class="cls-37" d="M3717.71,2535.7a4,4,0,0,0-5.07,2.51,104.65,104.65,0,0,1-4.34,10.73,4,4,0,0,0,7.24,3.42,111.15,111.15,0,0,0,4.67-11.58A4,4,0,0,0,3717.71,2535.7Z"/><path class="cls-37" d="M3722.06,2492a4,4,0,0,0-4,4v9.23c0,.91,0,1.81,0,2.7a4,4,0,0,0,3.9,4.11h.1a4,4,0,0,0,4-3.9c0-1,0-1.93,0-2.91V2496A4,4,0,0,0,3722.06,2492Z"/><path class="cls-37" d="M3350.52,2607.86h-12a4,4,0,0,0,0,8h12a4,4,0,0,0,0-8Z"/><path class="cls-37" d="M3722.06,1962.2a4,4,0,0,0-4,4v12a4,4,0,1,0,8,0v-12A4,4,0,0,0,3722.06,1962.2Z"/><path class="cls-37" d="M3711.2,1846.34a111.44,111.44,0,0,0-6.85-10.43,4,4,0,1,0-6.43,4.77,100.68,100.68,0,0,1,6.36,9.67,4,4,0,0,0,3.47,2,3.93,3.93,0,0,0,2-.54A4,4,0,0,0,3711.2,1846.34Z"/><path class="cls-37" d="M3722.06,2006.35a4,4,0,0,0-4,4v12a4,4,0,0,0,8,0v-12A4,4,0,0,0,3722.06,2006.35Z"/><path class="cls-37" d="M3722.06,2182.94a4,4,0,0,0-4,4v12a4,4,0,0,0,8,0v-12A4,4,0,0,0,3722.06,2182.94Z"/><path class="cls-37" d="M3722.06,1918.05a4,4,0,0,0-4,4v12a4,4,0,0,0,8,0v-12A4,4,0,0,0,3722.06,1918.05Z"/><path class="cls-37" d="M3722.06,2050.5a4,4,0,0,0-4,4v12a4,4,0,0,0,8,0v-12A4,4,0,0,0,3722.06,2050.5Z"/><path class="cls-37" d="M3722.06,2138.79a4,4,0,0,0-4,4v12a4,4,0,0,0,8,0v-12A4,4,0,0,0,3722.06,2138.79Z"/><path class="cls-37" d="M3722.06,2094.64a4,4,0,0,0-4,4v12a4,4,0,0,0,8,0v-12A4,4,0,0,0,3722.06,2094.64Z"/><path class="cls-37" d="M3722.06,2227.09a4,4,0,0,0-4,4v12a4,4,0,0,0,8,0v-12A4,4,0,0,0,3722.06,2227.09Z"/><path class="cls-37" d="M3438.81,2607.86h-12a4,4,0,0,0,0,8h12a4,4,0,0,0,0-8Z"/><path class="cls-37" d="M3483,2607.86h-12a4,4,0,0,0,0,8h12a4,4,0,0,0,0-8Z"/><path class="cls-37" d="M3462.17,1791.09h-12a4,4,0,0,0,0,8h12a4,4,0,0,0,0-8Z"/><path class="cls-37" d="M3527.11,2607.86h-12a4,4,0,0,0,0,8h12a4,4,0,0,0,0-8Z"/><path class="cls-37" d="M3506.31,1791.09h-12a4,4,0,0,0,0,8h12a4,4,0,0,0,0-8Z"/><path class="cls-37" d="M3373.87,1791.09h-12a4,4,0,0,0,0,8h12a4,4,0,0,0,0-8Z"/><path class="cls-37" d="M3394.66,2607.86h-12a4,4,0,0,0,0,8h12a4,4,0,0,0,0-8Z"/><path class="cls-37" d="M3418,1791.09h-12a4,4,0,0,0,0,8h12a4,4,0,0,0,0-8Z"/><path class="cls-37" d="M3680.84,1812.51a113.62,113.62,0,0,0-10.46-6.82,4,4,0,1,0-4,6.94,104.67,104.67,0,0,1,9.7,6.32,4,4,0,0,0,4.74-6.44Z"/><path class="cls-37" d="M3656.9,2599.13a102.51,102.51,0,0,1-10.84,4.08,4,4,0,0,0,1.19,7.81,3.84,3.84,0,0,0,1.2-.18,110.12,110.12,0,0,0,11.68-4.39,4,4,0,0,0-3.23-7.32Z"/><path class="cls-37" d="M3639.43,1793.71a111.31,111.31,0,0,0-12.32-2,4,4,0,1,0-.84,8,104.67,104.67,0,0,1,11.43,1.86,3.69,3.69,0,0,0,.87.1,4,4,0,0,0,.86-7.91Z"/><path class="cls-37" d="M3691.14,2574.5a103.76,103.76,0,0,1-8.29,8.09,4,4,0,1,0,5.26,6,111.32,111.32,0,0,0,8.93-8.72,4,4,0,0,0-5.9-5.4Z"/><path class="cls-37" d="M3571.25,2607.86h-12a4,4,0,0,0,0,8h12a4,4,0,0,0,0-8Z"/><path class="cls-37" d="M3550.46,1791.09h-12a4,4,0,0,0,0,8h12a4,4,0,0,0,0-8Z"/><path class="cls-37" d="M3594.61,1791.09h-12a4,4,0,0,0,0,8h12a4,4,0,0,0,0-8Z"/><path class="cls-37" d="M3615.65,2607.86h-12.29a4,4,0,0,0,0,8h12.3a4,4,0,0,0,0-8Z"/><path class="cls-5" d="M3550.73,2021.65h268.52a43.06,43.06,0,0,1,43.06,43.06v162.13a43.06,43.06,0,0,1-43.06,43.06H3550.73a124.13,124.13,0,0,1-124.13-124.13v0A124.13,124.13,0,0,1,3550.73,2021.65Z"/><g class="cls-38"><polygon class="cls-39" points="3407.95 2313.95 3891.03 2313.95 3891.03 2150.16 3399.66 2150.16 3407.95 2313.95"/></g><path class="cls-40" d="M3530.75,2096.52a47.29,47.29,0,1,0,47.28,47.29A47.29,47.29,0,0,0,3530.75,2096.52Z"/><rect class="cls-10" x="1628.01" y="588.96" width="1628.02" height="2070.49" rx="158.75"/><g class="cls-41"><circle class="cls-42" cx="1704.34" cy="770.48" r="35.74"/><circle class="cls-42" cx="1704.34" cy="883.07" r="35.74"/><circle class="cls-42" cx="1704.34" cy="998.22" r="35.74"/><circle class="cls-42" cx="1704.34" cy="1110.82" r="35.74"/><circle class="cls-42" cx="1704.34" cy="1225.97" r="35.74"/><circle class="cls-42" cx="1704.34" cy="1338.56" r="35.74"/><circle class="cls-42" cx="1704.34" cy="1453.71" r="35.74"/><circle class="cls-42" cx="1704.34" cy="1566.31" r="35.74"/><circle class="cls-42" cx="1704.34" cy="1681.46" r="35.74"/><circle class="cls-42" cx="1704.34" cy="1794.05" r="35.74"/><circle class="cls-42" cx="1704.34" cy="1909.2" r="35.74"/><circle class="cls-42" cx="1704.34" cy="2021.8" r="35.74"/><circle class="cls-42" cx="1704.34" cy="2136.95" r="35.74"/><circle class="cls-42" cx="1704.34" cy="2249.54" r="35.74"/><circle class="cls-42" cx="1704.34" cy="2364.69" r="35.74"/><circle class="cls-42" cx="1704.34" cy="2477.29" r="35.74"/><rect class="cls-15" x="1717.9" y="588.96" width="1628.02" height="2070.49" rx="158.75"/><rect class="cls-16" x="1807.02" y="588.96" width="1628.02" height="2070.49" rx="158.75"/><g class="cls-43"><g class="cls-22"><polygon class="cls-15" points="2667.79 2717.2 2919.7 2717.2 3401.74 2200.96 3339.54 1970.82 2667.79 2717.2"/></g></g><g class="cls-22"><rect class="cls-15" x="1976.63" y="722.94" width="1191.58" height="562.94" rx="78.94"/></g></g><circle class="cls-10" cx="1883.7" cy="772.48" r="35.74"/><circle class="cls-10" cx="1883.7" cy="885.07" r="35.74"/><circle class="cls-10" cx="1883.7" cy="1000.22" r="35.74"/><circle class="cls-10" cx="1883.7" cy="1112.82" r="35.74"/><circle class="cls-10" cx="1883.7" cy="1227.97" r="35.74"/><circle class="cls-10" cx="1883.7" cy="1340.56" r="35.74"/><circle class="cls-10" cx="1883.7" cy="1455.71" r="35.74"/><circle class="cls-10" cx="1883.7" cy="1568.31" r="35.74"/><circle class="cls-10" cx="1883.7" cy="1683.46" r="35.74"/><circle class="cls-10" cx="1883.7" cy="1796.05" r="35.74"/><circle class="cls-10" cx="1883.7" cy="1911.2" r="35.74"/><circle class="cls-10" cx="1883.7" cy="2023.8" r="35.74"/><circle class="cls-10" cx="1883.7" cy="2138.95" r="35.74"/><circle class="cls-10" cx="1883.7" cy="2251.54" r="35.74"/><circle class="cls-10" cx="1883.7" cy="2366.69" r="35.74"/><circle class="cls-10" cx="1883.7" cy="2479.29" r="35.74"/><rect class="cls-4" x="1601.83" y="752.05" width="289.02" height="40.85" rx="20.43"/><g class="cls-44"><g class="cls-45"><rect class="cls-46" x="1581.91" y="772.48" width="323.23" height="33.19"/></g></g><rect class="cls-4" x="1601.83" y="866.44" width="289.02" height="40.85" rx="20.43"/><g class="cls-47"><g class="cls-48"><rect class="cls-46" x="1584.91" y="887.84" width="323.23" height="33.19"/></g></g><rect class="cls-4" x="1601.83" y="980.82" width="289.02" height="40.85" rx="20.43"/><g class="cls-49"><g class="cls-48"><rect class="cls-46" x="1584.91" y="1005.78" width="323.23" height="33.19"/></g></g><rect class="cls-4" x="1601.83" y="1095.2" width="289.02" height="40.85" rx="20.43"/><g class="cls-50"><g class="cls-48"><rect class="cls-46" x="1584.91" y="1116.71" width="323.23" height="33.19"/></g></g><rect class="cls-4" x="1601.83" y="1209.58" width="289.02" height="40.85" rx="20.43"/><g class="cls-51"><g class="cls-48"><rect class="cls-46" x="1584.91" y="1230.69" width="323.23" height="33.19"/></g></g><rect class="cls-4" x="1601.83" y="1323.97" width="289.02" height="40.85" rx="20.43"/><g class="cls-52"><g class="cls-48"><rect class="cls-46" x="1584.91" y="1345.2" width="323.23" height="33.19"/></g></g><rect class="cls-4" x="1601.83" y="1438.35" width="289.02" height="40.85" rx="20.43"/><g class="cls-53"><g class="cls-48"><rect class="cls-46" x="1584.91" y="1457.67" width="323.23" height="33.19"/></g></g><rect class="cls-4" x="1601.83" y="1552.73" width="289.02" height="40.85" rx="20.43"/><g class="cls-54"><g class="cls-48"><rect class="cls-46" x="1584.91" y="1573.69" width="323.23" height="33.19"/></g></g><rect class="cls-4" x="1601.83" y="1667.12" width="289.02" height="40.85" rx="20.43"/><g class="cls-55"><g class="cls-48"><rect class="cls-46" x="1584.91" y="1689.22" width="323.23" height="33.19"/></g></g><rect class="cls-4" x="1601.83" y="1781.5" width="289.02" height="40.85" rx="20.43"/><g class="cls-56"><g class="cls-48"><rect class="cls-46" x="1584.91" y="1801.69" width="323.23" height="33.19"/></g></g><rect class="cls-4" x="1601.83" y="1895.88" width="289.02" height="40.85" rx="20.43"/><g class="cls-57"><g class="cls-48"><rect class="cls-46" x="1584.91" y="1915.67" width="323.23" height="33.19"/></g></g><rect class="cls-4" x="1601.83" y="2010.27" width="289.02" height="40.85" rx="20.43"/><g class="cls-58"><g class="cls-48"><rect class="cls-46" x="1584.91" y="2030.18" width="323.23" height="33.19"/></g></g><rect class="cls-4" x="1601.83" y="2124.65" width="289.02" height="40.85" rx="20.43"/><g class="cls-59"><g class="cls-48"><rect class="cls-46" x="1584.91" y="2145.18" width="323.23" height="33.19"/></g></g><rect class="cls-4" x="1601.83" y="2239.03" width="289.02" height="40.85" rx="20.43"/><g class="cls-60"><g class="cls-48"><rect class="cls-46" x="1584.91" y="2259.69" width="323.23" height="33.19"/></g></g><rect class="cls-4" x="1601.83" y="2353.41" width="289.02" height="40.85" rx="20.43"/><g class="cls-61"><g class="cls-48"><rect class="cls-46" x="1584.91" y="2373.69" width="323.23" height="33.19"/></g></g><rect class="cls-4" x="1601.83" y="2467.8" width="289.02" height="40.85" rx="20.43"/><g class="cls-62"><g class="cls-48"><rect class="cls-46" x="1584.91" y="2487.67" width="323.23" height="33.19"/></g></g><path class="cls-63" d="M1062.44,2621.35a11.9,11.9,0,0,0-1.13,5c0,28.78,111.4,52.11,248.82,52.11S1559,2655.08,1559,2626.3c0,0,0-.06,0-.08h0v-87.29H1062.44Z"/><ellipse class="cls-64" cx="1310.13" cy="2538.93" rx="248.82" ry="52.11"/><path class="cls-63" d="M1062.44,2515.05a11.9,11.9,0,0,0-1.13,4.95c0,28.78,111.4,52.11,248.82,52.11S1559,2548.78,1559,2520c0,0,0-.06,0-.09h0v-87.28H1062.44Z"/><ellipse class="cls-64" cx="1310.13" cy="2432.63" rx="248.82" ry="52.11"/><path class="cls-63" d="M1062.44,2408.74a12,12,0,0,0-1.13,5c0,28.78,111.4,52.11,248.82,52.11S1559,2442.48,1559,2413.7c0,0,0-.06,0-.09h0v-87.28H1062.44Z"/><ellipse class="cls-64" cx="1310.13" cy="2326.33" rx="248.82" ry="52.11"/><path class="cls-63" d="M1062.44,2302.44a11.94,11.94,0,0,0-1.13,5c0,28.78,111.4,52.11,248.82,52.11S1559,2336.18,1559,2307.4c0,0,0-.06,0-.09h0V2220H1062.44Z"/><ellipse class="cls-64" cx="1310.13" cy="2220.03" rx="248.82" ry="52.11"/><path class="cls-63" d="M1062.44,2196.14a11.9,11.9,0,0,0-1.13,5c0,28.78,111.4,52.11,248.82,52.11S1559,2229.87,1559,2201.09c0,0,0-.05,0-.08h0v-87.28H1062.44Z"/><ellipse class="cls-65" cx="1310.13" cy="2113.73" rx="248.82" ry="52.11"/><ellipse class="cls-6" cx="1310.13" cy="2113.73" rx="211.67" ry="32.31"/><g class="cls-66"><ellipse class="cls-7" cx="1295.62" cy="2126.16" rx="211.67" ry="32.31"/></g><rect class="cls-67" x="1185.54" y="2656.08" width="2563.63" height="50.66" rx="25.33"/><rect class="cls-68" x="3076.17" y="2255.83" width="16.89" height="54.89"/><rect class="cls-68" x="3234.92" y="2255.83" width="16.89" height="54.89"/><path class="cls-64" d="M3253.08,2223.74h-174.8a19,19,0,0,0,0,38h174.8a19,19,0,0,0,0-38Z"/><rect class="cls-7" x="2889.56" y="2291.3" width="550.56" height="363.1" rx="46.44"/><g class="cls-69"><path class="cls-68" d="M2867.6,2353.78s63.33,117.38,301.46,117.38,286.25-116.53,286.25-116.53V2245.7H2868.45Z"/><path class="cls-64" d="M3191.3,2460.12h-53.91a15.55,15.55,0,1,0,0,31.1h53.91a15.55,15.55,0,0,0,0-31.1Z"/></g><polygon class="cls-70" points="3018.62 1252.96 2965.9 1261.35 2961.05 1322 3076.85 1327.52 3075.3 1258.92 3018.62 1252.96"/><path class="cls-15" d="M2957.11,1280l-20.83,81s9.76,4.69,30.78,7.69c23.08-27.58,12.71-85.33,12.71-85.33Z"/><path class="cls-8" d="M2461.72,945.79s18-1.13,25.9,3.94,170.57,240.37,196.46,262.89,277,64.18,277,64.18,11.26,61.92-16.89,88.94c-128.35-4.5-287.1-38.28-309.61-45s-155.38-141.87-155.38-141.87Z"/><g class="cls-71"><path class="cls-72" d="M2493.64,1053.57,2447,1204.92l120.25,157.57s360.75,31.1,372.15,32.13-5.18,0,23.85-50.79c-272.64-9.33-313.07-42.51-379.42-91.23S2493.64,1053.57,2493.64,1053.57Z"/></g><path class="cls-9" d="M2465.07,1463.66s14.45,15.48,19.84,65.8,64,444.69,72.94,542.94,31.5,427,31.5,427l-132.12,14.13s-32.87-157-45.07-230.8-43.2-198.62-55.84-250.4-53.27-186.92-53.27-186.92-24.28,225.16-37.79,309.6c-8.58,53.63-36.88,332.42-36.88,332.42l-134.26-7.6s8.32-276.68,7.88-353c-.56-98.52-2.27-149.55-4.5-243.19-3.27-137.28-9.85-148.82-1.95-229.26s52.65-175.88,52.65-175.88Z"/><g class="cls-73"><path class="cls-15" d="M2198.35,1460.45c.06.32,5.88,33,0,68.13-3.43,20.5-10.13,37.75-19.9,51.27-12.15,16.83-29.17,27.93-50.6,33l-1.32.31-.19,1.35c-15.06,103.12-8.27,249.25-2.81,366.66,2.66,57.36,5,106.9,4.6,144.51-1,102.28-24,458.48-24.2,462.06l4,.26c.23-3.58,23.23-359.89,24.21-462.28.36-37.72-1.94-87.31-4.61-144.73-5.42-116.74-12.17-261.9,2.58-364.57,39.34-9.86,64.29-40,72.19-87.19,6-35.77,0-69.18,0-69.51Z"/><path class="cls-11" d="M2533.71,1628.83s-224.67,9.8-230.66,216.55c6,210.51,66.63,730.11,66.63,730.11s225.34,97.83,231.56,80.33S2687,2536.54,2687,2536.54Z"/><g class="cls-74"><path class="cls-75" d="M2332.31,1691.17l-88.12,149.41s167.47,521.86,170.17,528.87,18.06-214.23-36.3-417.74S2332.31,1691.17,2332.31,1691.17Z"/></g></g><path class="cls-12" d="M2576.19,2529.34l7.83,59.16s135.7,20.3,154.78,32.83,18.61,57.21,2.82,72.64-256.58,35.67-277.35,17.8-8.71-52.2-1.8-83.69-5.84-93.14-5.84-93.14Z"/><g class="cls-76"><path class="cls-13" d="M2448.6,2576.91s20.22,23.25,70.32,21.85S2586,2586,2586,2586s199.42,14.2,207.36,31.62-5,126-7.73,131.72-100.18,40.25-100.18,40.25-172.31-28.08-195.68-29.42-79.37-20.72-70.91-38.8S2448.6,2576.91,2448.6,2576.91Z"/><g class="cls-77"><path class="cls-78" d="M2516.54,2700.19c-71.8,1.58-77.56-26.5-78-32.37l-6.31,45.58L2446,2730l59.71,9.21,103.85-8,142.05-29.42s26.17-11.83,17.62-42.11C2739.78,2694.61,2596.68,2698.44,2516.54,2700.19Z"/><path class="cls-78" d="M2438.53,2666.75a9.55,9.55,0,0,0,0,1.07l.31-2.24Z"/></g><path class="cls-78" d="M2539.82,2627.69a24.91,24.91,0,1,0,17,30.84A24.91,24.91,0,0,0,2539.82,2627.69Z"/></g><path class="cls-12" d="M2222,2524.41s.07,45.7,4.69,63,52.15,61.11,90.89,64.2,66.89,55.54,41.37,77.17-82.42,35.6-135.7,30-151.09-18.14-155.87-38.5,11.81-106.13,29.19-120.36,13.93-83.47,13.93-83.47Z"/><g class="cls-79"><path class="cls-13" d="M2087.54,2573.19s52.55,78.48,172.68,15.73c95.12,25.71,136.64,95.24,133.93,96.77s4.89,58.08-7.66,58-265.75,37.94-295,32.14-74.46-24-74.46-24Z"/><path class="cls-78" d="M2114.29,2652.28a25.25,25.25,0,1,0,34.43,9.51A25.25,25.25,0,0,0,2114.29,2652.28Z"/><path class="cls-78" d="M2227.47,2742.41c-100.06.86-160.86-35.85-161.57-36.92l5,30.54,166.83,53.11,151.05-55.49,1.27-23-5.43-15.3C2366.49,2712,2327.54,2741.54,2227.47,2742.41Z"/></g><path class="cls-80" d="M2508.09,2455c-33.3,5.66-65,3.27-70.11,3.9s8,73.79,15.8,103.16c43.79,20.25,139.33-15,142.75-17s-5.8-115.37-8.63-117.11S2529.07,2451.41,2508.09,2455Z"/><path class="cls-80" d="M2153.42,2467c-27.06-1.92-62.42-7.27-68.27-7.42s-7,41.2-1.64,93.55c51,31.67,143.81,22,153.28,18s3.83-80.75,2.62-95.33S2175.41,2468.61,2153.42,2467Z"/><path class="cls-15" d="M2283.87,917.42s-120.23-13.92-154.65,45.16c-23,39.41,47.48,192.28,36.59,425.81,80.18,66.95,275.57,60.72,317.61,14,15.57-130.78,18.42-273.24,14.53-351.87s11.05-88.4-24.13-112.88c-35.81-24.91-106.91-15.56-106.91-15.56Z"/><path class="cls-15" d="M2485.24,1390.21c-10.73-5.53-61.24,37.37-149.47,31.14-90.88-6.42-150.16-42.9-163-51.55s-19,17.64-13.14,41.17,95.83,51.21,176.45,54.67,145-22.15,149.81-24.92S2496,1395.75,2485.24,1390.21Z"/><path d="M2486.15,1388.43c-4.31-2.22-11.94,1.06-24.59,6.5-22.35,9.61-58.22,25-108.2,25-5.63,0-11.45-.19-17.45-.62-91.59-6.46-151-43.79-162-51.21-3.7-2.5-7.44-2.68-10.53-.52-7.67,5.37-10.27,25.45-5.68,43.83,4.07,16.28,40.31,29.72,61.56,36.29,35.53,11,78.09,18.23,116.75,19.89q7.63.33,15.07.32c72.61,0,129.81-22.06,135.82-25.49,4.4-2.51,6.84-20.94,6.6-32.52C2493.34,1401.77,2491.92,1391.41,2486.15,1388.43Zm-1.22,50.56c-2.36,1.35-19.85,8.42-45.95,14.58-23.7,5.59-60.76,11.87-102.78,10.07-86.28-3.71-169.51-32.81-174.59-53.16-4.48-17.88-1.53-35.65,4.09-39.58a3.82,3.82,0,0,1,2.33-.78,6.66,6.66,0,0,1,3.66,1.33c11.13,7.52,71.33,45.36,163.94,51.89,6.11.44,12,.64,17.78.64,50.74,0,87.09-15.64,109.73-25.38,10-4.28,18.54-8,21.18-6.61,2.42,1.25,4.14,5.66,4.86,12.42C2490.76,1419.42,2486.93,1437.34,2484.93,1439Z"/><path class="cls-12" d="M2286.81,810s7.27,39.09,0,91.68c11.77,15.57,43.94,27.34,86.85,8.31,0-19,.69-38.75.69-38.75Z"/><g class="cls-81"><path class="cls-70" d="M2275,790.19c1.82,1.21,0,65,0,65s83.2,34.62,105.06,81.38c7.29-48,10.32-74.09,10.32-74.09S2273.17,789,2275,790.19Z"/></g><path class="cls-14" d="M2437.49,742.53s46.19-20.24,51.9-75.25-35.29-59.16-57.61-65.91-24.65-42.56-76-42.56-52.42,40.74-82,36.59-70.32,40-59.94,87.45,16.87,132.08,67.73,133.63S2437.49,742.53,2437.49,742.53Z"/><g class="cls-82"><path class="cls-83" d="M2424.79,684.8c-53.91,3.63-42.51,11.92-88.38,4.15s-41.72,17.36-74.9,44.83-65.56-34.2-65.56-34.2l32.13,91.74,53.91,36.8,113.25-15,86.82-63.5s18.4-20.47,24.62-77.23C2496.05,710.72,2478.69,681.17,2424.79,684.8Z"/></g><path class="cls-12" d="M2441.64,709.84s2.6,72.65-.52,119.36-41.52,74.21-84.59,61-66.69-50.6-66.69-67.21c-19.2,2.08-29.58-17.64-30.88-35.81s12.46-37.36,29.84-23.35c0-15.57,2.08-38.92,6.49-49.82s17.65-23.1,40-18.17,42.82,15,58.91,11.16S2434.89,690.37,2441.64,709.84Z"/><g class="cls-84"><circle class="cls-85" cx="2320.28" cy="804.81" r="21.09" transform="translate(37.58 1710.72) rotate(-40.78)"/><path class="cls-85" d="M2442.86,782.93a21.09,21.09,0,1,0,19.48,22.59A21.09,21.09,0,0,0,2442.86,782.93Z"/><path class="cls-86" d="M2359.34,736.31a28,28,0,0,0-5.59-1.52,30.52,30.52,0,0,0-5.81-.3,31,31,0,0,0-11.14,2.78,27.23,27.23,0,0,0-9.13,6.58,78.63,78.63,0,0,1,10.21-3.64,48.68,48.68,0,0,1,10.27-1.72,42,42,0,0,1,5.14.06,45.05,45.05,0,0,1,5.13.77,61.86,61.86,0,0,1,10.24,3.37A25.07,25.07,0,0,0,2359.34,736.31Z"/><path class="cls-86" d="M2417.71,741.92a11.11,11.11,0,0,0-6.73-1.67,13.82,13.82,0,0,0-6.38,2.12,12.78,12.78,0,0,0-4.49,4.66c2.07-.66,3.95-1.3,5.79-1.81a26.35,26.35,0,0,1,5.34-1,14.88,14.88,0,0,1,5.12.53,31.35,31.35,0,0,1,5.43,2.31A10.05,10.05,0,0,0,2417.71,741.92Z"/><path class="cls-86" d="M2351.73,753.16c-4.72-.28-8.83,4.25-9.19,10.13s3.19,10.87,7.9,11.16,8.84-4.25,9.19-10.13S2356.45,753.45,2351.73,753.16Z"/><path class="cls-86" d="M2411.71,756.79c-4.72-.28-8.84,4.25-9.19,10.12s3.18,10.88,7.9,11.16,8.83-4.25,9.19-10.12S2416.42,757.08,2411.71,756.79Z"/><path class="cls-86" d="M2389.21,772.91l7.36,28.11c2.09,8,1.53,12.23-5.22,19.43,8-.66,16.21-11.16,11.82-18.87S2389.21,772.91,2389.21,772.91Z"/><path class="cls-86" d="M2384,845.13a43.72,43.72,0,0,1-6.77-.28A50.31,50.31,0,0,1,2364,841.2a74.29,74.29,0,0,1-12.44-6.76,36.84,36.84,0,0,0,11,9.57,38,38,0,0,0,14.09,4.81,36.64,36.64,0,0,0,7.55.1,35.72,35.72,0,0,0,7.34-1.6,34.24,34.24,0,0,0,12.47-7.66,65.81,65.81,0,0,1-13.31,4.63A47.39,47.39,0,0,1,2384,845.13Z"/><path class="cls-70" d="M2403.14,690.79l-15,11.14-71.87-18-51.42,17.81,14.58,48.18s-32.19,9.92-25,23.79c0,0,12.75-17,35.32-2.94,1.42-23,2.63-41.19,8.2-54.76s24.29-19.73,41.7-12.14,41.4,14.88,66.71,4.65,39.17,1.22,42,12.56c-2.73-16.2-14.67-30.88-14.67-30.88Z"/><path class="cls-70" d="M2275.4,773.79c8.3,5.57,6.28,18.83,6.28,18.83s-7.8-4-10.83,4.75,10.42,17.72,14.67,7S2288,774.6,2275.4,773.79Z"/></g><path class="cls-15" d="M2330.41,910.16c12.6.84,37.54-10.55,43.94-9.86s9.86,27.85,3.28,32.87-34.59,8.65-49.13,7.44-42.72-9.52-48.26-19.9-.17-35.46,8.82-28.71S2314.84,909.12,2330.41,910.16Z"/><g class="cls-87"><g class="cls-88"><path class="cls-89" d="M2315.38,927.44c-38.26-6.68-50.1-35.22-50.1-35.22s3,27.63,6.37,30.67,8.51,16.7,12.15,23.07,73.79,2.74,86.85.61,20.65-13.36,15.18-24.9S2353.64,934.12,2315.38,927.44Z"/></g></g><path class="cls-8" d="M2250.66,912s80.46,140.79,97.91,233.67,20.27,316.94,20.27,316.94l-4.51,244.31s-174.51,14.64-277-50.66c16.89-116,51.79-240.94,59.67-281.47s-1.13-189.15-6.76-255.58-20-142.42-12.94-160.15,20.54-37.44,122.72-47Z"/><g class="cls-90"><path class="cls-18" d="M2269.76,894l-61.92.56s21.39,58.55,21.39,127.22c22.52,1.13,34.34,3.94,34.34,3.94l-18,29.28s80.5,81.06,123.29,242.06c22.52-82.19,10.13-183.52,10.13-183.52Z"/><path class="cls-17" d="M2221.52,1351.6c-81.64-35.76-52.87-45.09-56-129.84s6.22-164,6.22-166.38l-93.3,169.49s-7.77,163.27-28.77,383.3c28-66.09,266.68-85.52,314.11-89.41s34.21-64.53,34.21-64.53S2303.15,1387.37,2221.52,1351.6Z"/></g><path class="cls-17" d="M2392.8,915.7s-16.64,73.72-27.62,123.54S2350,1173.5,2350,1173.5l11,369.85,28.71,162.13s81.9,17.73,124.13-50.67c-13.52-173.1-20.27-266-18.58-295.54s11-194.22,11.82-249.1.28-152.37-21.86-168.14-63.8-27-91.2-26.27Z"/><g class="cls-91"><path class="cls-8" d="M2347.45,933.4c-3.38,0-15.77,147.49-15.77,147.49s-13.51,92.33,28.15,198.16c2.25-114.84,60.8-224.62,60.8-224.62l-21.39-22.51,33.77-6.2,3.38-117.65C2366.59,864.72,2350.82,933.4,2347.45,933.4Z"/><g class="cls-88"><polygon class="cls-15" points="2427.64 1126.65 2427.64 1148.94 2478.09 1147.73 2477.82 1126.13 2427.64 1126.65"/></g></g><path class="cls-12" d="M2346.43,1352.56s25.54-6.43,32.35-10.74,8.76-9.85,35.47-31.81c13.7-11.26,24-25.72,32.84-34.62,9.66-9.76,18.91-5.91,16.89,16.32-1.13,12.39-14.36,39.41-14.36,39.41s45.77-.57,58.21,3.65,14.55,17.19,7.51,28.11,1.79,17.65-4.84,31.57-10.14,15.19-12.39,22.86-4.47,19-23.44,24.89-99.73-7-138.28-22.62C2331.12,1386.69,2346.43,1352.56,2346.43,1352.56Z"/><g class="cls-92"><path class="cls-70" d="M2371.12,1315.76s-59.49,96.21-60.53,97.71,9,30.67,9,30.67,75.18,15.28,106.26,11C2356.17,1400,2372.62,1316.8,2371.12,1315.76Z"/></g><path class="cls-15" d="M2334.22,1342.38l-11.82,82.47,24.48,5.91s11.26-8.44,14.08-33.78-1.41-53.19-1.41-53.19Z"/><path class="cls-18" d="M2157.17,958.17c24.58,16.34,40.53,109.78,25.33,154.25s-69.8,168.32-69.8,168.32,148.05,47.85,226.87,57.42c7.31,31,4.5,81.9-16.61,90.35-173.11-22.8-325.94-42.22-333.54-91.2s63.33-227.14,79.37-272.74S2112.7,928.62,2157.17,958.17Z"/><g class="cls-93"><path class="cls-94" d="M1940.07,1217.88l-19.44,71.52s31.88,109.63,36.54,108.85,382.52,61.42,382.52,61.42l17.11-57.53S2124.59,1378,2026.63,1348,1940.07,1217.88,1940.07,1217.88Z"/></g><rect class="cls-19" x="2801.18" y="564.11" width="526.91" height="720.56" rx="46.72"/><g class="cls-95"><rect class="cls-96" x="2800.05" y="578.75" width="505.52" height="707.05" rx="45.33"/><rect class="cls-20" x="2827.07" y="618.16" width="450.35" height="170.01" rx="32.09"/><g class="cls-97"><rect class="cls-98" x="2836.4" y="607.79" width="450.35" height="170.01" rx="32.09"/></g><circle class="cls-99" cx="3052.53" cy="868.1" r="54.89"/><rect class="cls-99" x="2841.43" y="816.59" width="84.44" height="45.6" rx="12.67"/><rect class="cls-99" x="2841.43" y="876.55" width="84.44" height="45.6" rx="12.67"/><path class="cls-99" d="M2944.63,829.26v20.26a12.67,12.67,0,0,0,12.67,12.67h25.22a70.11,70.11,0,0,1,22.22-45.6H2957.3A12.67,12.67,0,0,0,2944.63,829.26Z"/><path class="cls-99" d="M2982.78,876.55H2957.3a12.66,12.66,0,0,0-12.67,12.66v20.27a12.66,12.66,0,0,0,12.67,12.66h50.32A70.1,70.1,0,0,1,2982.78,876.55Z"/><path class="cls-99" d="M3147.15,816.59H3099.7a70.07,70.07,0,0,1,22.23,45.6h25.22a12.67,12.67,0,0,0,12.67-12.67V829.26A12.67,12.67,0,0,0,3147.15,816.59Z"/><path class="cls-99" d="M3147.15,876.55h-25.48a70.1,70.1,0,0,1-24.84,45.59h50.32a12.66,12.66,0,0,0,12.67-12.66V889.21A12.66,12.66,0,0,0,3147.15,876.55Z"/><rect class="cls-99" x="2841.43" y="944.94" width="86.47" height="59.11" rx="14.59"/><rect class="cls-99" x="2953.43" y="944.94" width="86.47" height="59.11" rx="14.59"/><rect class="cls-99" x="3065.43" y="944.94" width="86.47" height="59.11" rx="14.59"/><rect class="cls-99" x="3177.44" y="944.94" width="86.47" height="59.11" rx="14.59"/><rect class="cls-99" x="2841.43" y="1026.57" width="86.47" height="59.11" rx="14.59"/><rect class="cls-99" x="2953.43" y="1026.57" width="86.47" height="59.11" rx="14.59"/><rect class="cls-99" x="3065.43" y="1026.57" width="86.47" height="59.11" rx="14.59"/><rect class="cls-99" x="3177.44" y="1026.57" width="86.47" height="59.11" rx="14.59"/><rect class="cls-99" x="2841.43" y="1108.2" width="86.47" height="59.11" rx="14.59"/><rect class="cls-99" x="2953.43" y="1108.2" width="86.47" height="59.11" rx="14.59"/><rect class="cls-99" x="3065.43" y="1108.2" width="86.47" height="59.11" rx="14.59"/><rect class="cls-99" x="3177.44" y="1108.2" width="86.47" height="59.11" rx="14.59"/><rect class="cls-99" x="2841.43" y="1189.82" width="86.47" height="59.11" rx="14.59"/><rect class="cls-99" x="2953.43" y="1189.82" width="86.47" height="59.11" rx="14.59"/><rect class="cls-99" x="3065.43" y="1189.82" width="86.47" height="59.11" rx="14.59"/><rect class="cls-99" x="3177.44" y="1189.82" width="86.47" height="59.11" rx="14.59"/><rect class="cls-99" x="3180.03" y="816.59" width="84.44" height="45.6" rx="12.67"/><rect class="cls-99" x="3180.03" y="876.55" width="84.44" height="45.6" rx="12.67"/><circle class="cls-100" cx="3041.64" cy="864.99" r="54.89"/><rect class="cls-100" x="2830.54" y="813.48" width="84.44" height="45.6" rx="12.67"/><rect class="cls-100" x="2830.54" y="873.44" width="84.44" height="45.6" rx="12.67"/><path class="cls-100" d="M2933.75,826.15v20.26a12.66,12.66,0,0,0,12.66,12.67h25.23a70.06,70.06,0,0,1,22.22-45.6h-47.45A12.66,12.66,0,0,0,2933.75,826.15Z"/><path class="cls-100" d="M2971.89,873.44h-25.48a12.66,12.66,0,0,0-12.66,12.66v20.27A12.66,12.66,0,0,0,2946.41,919h50.32A70.14,70.14,0,0,1,2971.89,873.44Z"/><path class="cls-100" d="M3136.26,813.48h-47.44a70.11,70.11,0,0,1,22.22,45.6h25.22a12.67,12.67,0,0,0,12.67-12.67V826.15A12.67,12.67,0,0,0,3136.26,813.48Z"/><path class="cls-100" d="M3136.26,873.44h-25.47A70.18,70.18,0,0,1,3086,919h50.31a12.66,12.66,0,0,0,12.67-12.66V886.1A12.66,12.66,0,0,0,3136.26,873.44Z"/><rect class="cls-100" x="2830.54" y="941.83" width="86.47" height="59.11" rx="14.59"/><rect class="cls-100" x="2942.55" y="941.83" width="86.47" height="59.11" rx="14.59"/><rect class="cls-100" x="3054.55" y="941.83" width="86.47" height="59.11" rx="14.59"/><rect class="cls-100" x="3166.55" y="941.83" width="86.47" height="59.11" rx="14.59"/><rect class="cls-100" x="2830.54" y="1023.46" width="86.47" height="59.11" rx="14.59"/><rect class="cls-100" x="2942.55" y="1023.46" width="86.47" height="59.11" rx="14.59"/><rect class="cls-100" x="3054.55" y="1023.46" width="86.47" height="59.11" rx="14.59"/><rect class="cls-100" x="3166.55" y="1023.46" width="86.47" height="59.11" rx="14.59"/><rect class="cls-100" x="2830.54" y="1105.09" width="86.47" height="59.11" rx="14.59"/><rect class="cls-100" x="2942.55" y="1105.09" width="86.47" height="59.11" rx="14.59"/><rect class="cls-100" x="3054.55" y="1105.09" width="86.47" height="59.11" rx="14.59"/><rect class="cls-100" x="3166.55" y="1105.09" width="86.47" height="59.11" rx="14.59"/><rect class="cls-100" x="2830.54" y="1186.71" width="86.47" height="59.11" rx="14.59"/><rect class="cls-100" x="2942.55" y="1186.71" width="86.47" height="59.11" rx="14.59"/><rect class="cls-100" x="3054.55" y="1186.71" width="86.47" height="59.11" rx="14.59"/><rect class="cls-100" x="3166.55" y="1186.71" width="86.47" height="59.11" rx="14.59"/><rect class="cls-100" x="3169.15" y="813.48" width="84.44" height="45.6" rx="12.67"/><rect class="cls-100" x="3169.15" y="873.44" width="84.44" height="45.6" rx="12.67"/></g><path class="cls-12" d="M3117.65,1230.91c-12.79-7.06-53.82-15.44-58.23-7.94s6.4,12.79,19.41,15.22,27.79,8.6,27.79,8.6l17,28s-20.74-19.63-28.9-21.84-41.9-16.54-53.15-13.45-3.53,13,4.85,15.44,35.07,13,36.83,13.45,11,14.78,11,14.78-19.41-12.79-22.72-13.89-35.62-13-38.48-3.86,12,14.44,12,14.44-9.05,1.22-8.94,6.73,4.53,9.59,12.69,13.9,20.95,18,20.73,19.3-87.69-3.18-87.69-3.18l-3.52,28.43s36.95,4.52,75.33,8,88.67-33.08,95.72-68.37C3152.06,1264.43,3130.45,1238,3117.65,1230.91Z"/><g class="cls-45"><path class="cls-15" d="M2904.7,702.59a1.34,1.34,0,0,0-.44-1.08c-.54-.51-1.05-1-1.59-1.59a10,10,0,0,0-.87.67c-1.7,1.68-3.37,3.38-5.08,5a1.67,1.67,0,0,0-.57,1.33q0,5.63,0,11.25a1.83,1.83,0,0,0,.61,1.42c1.71,1.66,3.38,3.36,5.07,5.05l.74.68c.51-.5,1-1,1.47-1.44a1.92,1.92,0,0,0,.67-1.61c0-2.69,0-5.38,0-8.07C2904.67,710.36,2904.68,706.48,2904.7,702.59Z"/><path class="cls-15" d="M2902.59,699.83l.08.09.06,0-.1-.09Z"/><path class="cls-15" d="M2904.69,677.28a1.79,1.79,0,0,0-.2-1c-.58-.7-1.26-1.3-2-2-2.08,2.09-4.08,4.08-6.05,6.1a1.1,1.1,0,0,0-.29.71c0,3.92,0,7.84,0,11.76a1.35,1.35,0,0,0,.46,1.07c1.26,1.24,2.5,2.51,3.77,3.75.69.69,1.41,1.36,2.25,2.17.57-.61,1.06-1.19,1.62-1.71a1.41,1.41,0,0,0,.45-1.17c0-1.4,0-2.79,0-4.19Q2904.7,685,2904.69,677.28Z"/><path class="cls-15" d="M2879.09,681.52a1.89,1.89,0,0,0-.6-1.52c-1.47-1.42-2.9-2.88-4.35-4.32-.47-.47-1-.92-1.53-1.46-.55.59-1,1.13-1.54,1.62a1.51,1.51,0,0,0-.49,1.26c0,1.63,0,3.27,0,4.9v15.12a1,1,0,0,0,.17.66c.6.68,1.25,1.33,1.91,2,2-1.94,3.83-3.82,5.74-5.66a2.13,2.13,0,0,0,.71-1.69C2879.07,688.81,2879.05,685.16,2879.09,681.52Z"/><path class="cls-15" d="M2897.26,670c-5.93,0-11.86,0-17.79,0-2.66,0-2.66,0-4.44,1.93,0,0,0,.05-.09.13a1,1,0,0,0,.11.23c1.92,1.93,3.86,3.86,5.77,5.8a1.37,1.37,0,0,0,1.11.37c3.78,0,7.56,0,11.35,0a1.67,1.67,0,0,0,1.34-.55c1.74-1.78,3.52-3.52,5.27-5.29.16-.16.3-.34.54-.63a15.68,15.68,0,0,1-1.38-1.28A2.1,2.1,0,0,0,2897.26,670Z"/><path class="cls-15" d="M3044.47,698.23a2,2,0,0,0,.7-1.7c0-4.5,0-9,0-13.49,0-2,0-3.95,0-5.93a2.14,2.14,0,0,0-.37-1.22,19.94,19.94,0,0,0-1.72-1.72,1.7,1.7,0,0,0-.28.18c-1.9,1.9-3.79,3.81-5.71,5.69a1.44,1.44,0,0,0-.4,1.2c0,3.78,0,7.56,0,11.34a1.56,1.56,0,0,0,.53,1.24l5.28,5.27c.15.16.33.3.55.5-2.09,2.11-4.07,4.12-6.06,6.11a1.4,1.4,0,0,0-.32,1.13c0,3.75,0,7.49,0,11.24a1.81,1.81,0,0,0,.61,1.42c1.71,1.67,3.38,3.36,5.07,5,.21.21.44.4.7.63.16-.13.3-.23.42-.34,1.71-1.59,1.71-1.59,1.7-3.93,0-4,0-8-.05-11.95,0-2.15,0-4.29.06-6.43a1.53,1.53,0,0,0-.51-1.27c-.52-.48-1-1-1.58-1.64C3043.56,699.12,3044,698.64,3044.47,698.23Z"/><path class="cls-15" d="M2950.78,702.06a8,8,0,0,0-1.77-1.93,1.37,1.37,0,0,0-.26-.16,2.68,2.68,0,0,0-.34.28c-1.86,1.85-3.71,3.71-5.57,5.55a1.48,1.48,0,0,0-.47,1.17c0,3.78,0,7.56,0,11.34a1.65,1.65,0,0,0,.56,1.34c1.77,1.74,3.52,3.51,5.28,5.27.16.16.35.31.64.57a20.56,20.56,0,0,1,1.41-1.51,1.94,1.94,0,0,0,.65-1.61c0-6,0-11.93,0-17.89A6.26,6.26,0,0,0,2950.78,702.06Z"/><path class="cls-15" d="M2923,678.41l-4.11-4.08c-.5.49-1,1-1.47,1.42a1.9,1.9,0,0,0-.66,1.6c0,5.62,0,11.24,0,16.85,0,1,0,2,0,3a1.55,1.55,0,0,0,.32.91c.52.62,1.12,1.18,1.76,1.83,2.11-2.1,4.1-4.11,6.11-6.09a1.29,1.29,0,0,0,.33-1c0-3.81,0-7.62,0-11.44a1.43,1.43,0,0,0-.51-1.15C2924.2,679.62,2923.61,679,2923,678.41Z"/><path class="cls-15" d="M2943.37,670c-5.89,0-11.79,0-17.69,0a6.07,6.07,0,0,0-2.42.1,8.93,8.93,0,0,0-2,1.85,1,1,0,0,0-.1.17h0a.76.76,0,0,0,.09.18c2,2,3.94,4,5.93,5.93a1.37,1.37,0,0,0,.82.3c.64,0,1.29,0,1.94,0,3.23,0,6.47,0,9.71,0a1.31,1.31,0,0,0,1-.39c2-2,4-3.91,6-5.92-.57-.59-1-1-1.41-1.48A2.11,2.11,0,0,0,2943.37,670Z"/><path class="cls-15" d="M2939.39,721.18q-5.58,0-11.14,0a1.71,1.71,0,0,0-1.35.55c-1.78,1.82-3.6,3.62-5.41,5.43-.13.13-.25.29-.38.44.46.49.91.91,1.3,1.38a2.07,2.07,0,0,0,1.77.76c5.93,0,11.86,0,17.78,0a7.31,7.31,0,0,0,2.53-.12c.66-.26,1.12-1.05,1.67-1.61.12-.11.24-.22.48-.46-2-2-3.93-3.84-5.83-5.75A1.82,1.82,0,0,0,2939.39,721.18Z"/><path class="cls-15" d="M2940.57,696a1.38,1.38,0,0,0-1.12-.34c-3.75,0-7.5,0-11.25,0a1.69,1.69,0,0,0-1.34.57c-.89.94-1.82,1.84-2.74,2.76-.3.3-.6.62-.95,1,.95.93,1.89,1.73,2.68,2.67a3.52,3.52,0,0,0,3.69,1.51,1.88,1.88,0,0,1,.41,0c3.24,0,6.48,0,9.72,0a1.37,1.37,0,0,0,.89-.34c1.3-1.25,2.56-2.54,3.92-3.9C2943.12,698.51,2941.83,697.24,2940.57,696Z"/><path class="cls-15" d="M3144.33,698.25a1.87,1.87,0,0,0,.61-1.53c0-4.6,0-9.2,0-13.8,0-1.94,0-3.88,0-5.83a1.54,1.54,0,0,0-.23-.94c-.57-.66-1.23-1.24-1.92-1.92-2.09,2.1-4.11,4.12-6.1,6.16a1.12,1.12,0,0,0-.24.74c0,3.85,0,7.7,0,11.55a1.58,1.58,0,0,0,.5,1.26c.92.87,1.78,1.79,2.69,2.66,1.07,1,2.16,2.07,3.24,3.11-.19.23-.27.34-.36.43-1.83,1.83-3.65,3.67-5.5,5.49a1.71,1.71,0,0,0-.57,1.33q0,5.68,0,11.35a1.45,1.45,0,0,0,.46,1.17c1.77,1.75,3.52,3.51,5.28,5.27.21.2.44.38.75.65.49-.52.9-1,1.39-1.46a1.87,1.87,0,0,0,.65-1.61c0-2.65,0-5.31,0-8,0-3.85,0-7.7,0-11.55a1.53,1.53,0,0,0-.51-1.36c-.58-.47-1.12-1-1.71-1.51C3143.34,699.27,3143.81,698.73,3144.33,698.25Z"/><path class="cls-15" d="M3119.33,681.57a2.08,2.08,0,0,0-.7-1.68c-1.69-1.64-3.33-3.32-5-5-.21-.22-.44-.41-.78-.71-.52.57-1,1.12-1.5,1.6a1.67,1.67,0,0,0-.55,1.35c0,1.63,0,3.26,0,4.9q0,7.5,0,15a1.15,1.15,0,0,0,.21.74c.59.65,1.24,1.25,2,2,1.95-2,3.83-3.88,5.75-5.76a2,2,0,0,0,.61-1.53C3119.32,688.86,3119.29,685.21,3119.33,681.57Z"/><path class="cls-15" d="M3134.68,721.56a1.26,1.26,0,0,0-1-.39h-11.56a1.35,1.35,0,0,0-1.07.44c-1.77,1.79-3.58,3.55-5.37,5.32-.19.19-.35.39-.61.67.57.54,1.11,1,1.59,1.53a1.52,1.52,0,0,0,1.26.52c1.12,0,2.25,0,3.37,0l16.77,0a1.17,1.17,0,0,0,.73-.25c.63-.57,1.2-1.19,1.79-1.78a1.64,1.64,0,0,0-.2-.33C3138.48,725.37,3136.57,723.47,3134.68,721.56Z"/><path class="cls-15" d="M3138,670c-4.6,0-9.2,0-13.8,0-2.08,0-4.16,0-6.24,0a1.7,1.7,0,0,0-1,.28c-.64.54-1.2,1.18-1.7,1.69,1.95,2,3.85,4,5.71,5.95a1.68,1.68,0,0,0,1.35.54c3.71,0,7.43,0,11.14,0a1.77,1.77,0,0,0,1.44-.57c1.72-1.76,3.46-3.48,5.19-5.21.17-.17.33-.35.62-.67-.63-.6-1.18-1.17-1.78-1.66A1.52,1.52,0,0,0,3138,670Z"/><path class="cls-15" d="M3133.7,695.59c-3.88,0-7.77,0-11.65,0a1.44,1.44,0,0,0-.88.36c-1.14,1.07-2.25,2.18-3.36,3.28-.19.18-.34.39-.44.5,1.34,1.41,2.63,2.77,3.94,4.1a1.21,1.21,0,0,0,.74.23q5.82,0,11.65,0a1.47,1.47,0,0,0,.9-.34c1.32-1.23,2.61-2.49,4.05-3.88-1.46-1.42-2.73-2.69-4-3.92A1.46,1.46,0,0,0,3133.7,695.59Z"/><path class="cls-15" d="M2971.16,680.1l-5.36-5.35c-.16-.16-.36-.28-.61-.48-.51.52-1,1-1.45,1.5a1.68,1.68,0,0,0-.57,1.35c0,2,0,4.08,0,6.13v12c0,2.59,0,2.59,1.9,4.37a1.91,1.91,0,0,0,.28.2c1.9-1.92,3.76-3.81,5.66-5.67a2,2,0,0,0,.65-1.61c0-3.78,0-7.57,0-11.35A1.38,1.38,0,0,0,2971.16,680.1Z"/><path class="cls-15" d="M2990.08,670c-2.39,0-4.78,0-7.16,0-4.16,0-8.32,0-12.47,0a1.86,1.86,0,0,0-1.14.26,20,20,0,0,0-1.8,1.77,1.83,1.83,0,0,0,.2.32c1.9,1.91,3.81,3.8,5.7,5.72a1.33,1.33,0,0,0,1.1.38H2986a1.51,1.51,0,0,0,1.17-.47c1.7-1.73,3.42-3.43,5.13-5.15.23-.23.41-.5.65-.79-.52-.54-1-1-1.41-1.47A1.7,1.7,0,0,0,2990.08,670Z"/><path class="cls-15" d="M2965.82,700.35c-.16-.16-.34-.31-.6-.53-.46.49-.84,1-1.3,1.37a2.06,2.06,0,0,0-.75,1.78c0,6,0,11.93,0,17.89,0,2.54,0,2.54,1.86,4.28a1.64,1.64,0,0,0,.23.16,2.61,2.61,0,0,0,.29-.18c1.91-1.9,3.8-3.82,5.73-5.7a1.39,1.39,0,0,0,.37-1.11c0-3.78,0-7.57,0-11.35a1.73,1.73,0,0,0-.56-1.34C2969.33,703.88,2967.58,702.11,2965.82,700.35Z"/><path class="cls-15" d="M2987.07,721.59a1.37,1.37,0,0,0-1.09-.42q-5.71,0-11.45,0a1.63,1.63,0,0,0-1.26.52c-1.38,1.42-2.78,2.8-4.18,4.2l-1.74,1.75a14,14,0,0,1,1.4,1.26,2.23,2.23,0,0,0,1.88.77c6.17,0,12.34,0,18.5,0,.41,0,.82,0,1.23,0a1.28,1.28,0,0,0,.74-.23c.63-.57,1.2-1.19,1.81-1.81-.24-.3-.38-.53-.57-.72C2990.59,725.11,2988.82,723.36,2987.07,721.59Z"/><path class="cls-15" d="M2997.25,702.56a1.25,1.25,0,0,0-.17-.76c-.61-.68-1.26-1.3-1.93-2-2.08,2.08-4.05,4.06-6,6a1.42,1.42,0,0,0-.35,1.12c0,3.75,0,7.5,0,11.24a1.8,1.8,0,0,0,.61,1.43c1.73,1.7,3.43,3.42,5.14,5.13.19.18.4.35.66.59.49-.47.91-1,1.4-1.37a1.94,1.94,0,0,0,.71-1.69c-.05-2.69-.05-5.39-.05-8.08C2997.23,710.33,2997.25,706.45,2997.25,702.56Z"/><path class="cls-15" d="M2986.9,695.88a1.24,1.24,0,0,0-.82-.29q-5.86,0-11.74,0a1.24,1.24,0,0,0-.82.29c-1.32,1.27-2.61,2.57-4,3.93,1.36,1.36,2.62,2.6,3.86,3.86a1.24,1.24,0,0,0,1,.4c.95,0,1.9,0,2.85,0,2.93,0,5.86,0,8.78,0a1.26,1.26,0,0,0,.84-.26c1.34-1.29,2.64-2.62,4-4C2989.51,698.46,2988.22,697.15,2986.9,695.88Z"/><path class="cls-15" d="M3086.68,670c-4.25,0-8.51,0-12.77,0-2.25,0-4.5,0-6.74,0a1.59,1.59,0,0,0-1,.21c-.66.57-1.25,1.22-1.92,1.89,1.63,1.62,3.24,3.09,4.69,4.71,1.07,1.2,2.19,2,3.86,1.61a1.5,1.5,0,0,1,.2,0c3.27,0,6.54,0,9.81,0a1.38,1.38,0,0,0,1.08-.44c2-1.93,4-3.84,6-5.81-.58-.61-1-1-1.36-1.45A2.15,2.15,0,0,0,3086.68,670Z"/><path class="cls-15" d="M3068,680.1c-1.59-1.59-3.19-3.17-4.77-4.78a14.19,14.19,0,0,1-1-1.27c-.68.72-1.09,1.22-1.57,1.65a1.82,1.82,0,0,0-.64,1.52c0,4.53,0,9.06,0,13.59,0,2.05,0,4.09,0,6.14a1.48,1.48,0,0,0,.17.86c.59.69,1.25,1.32,1.9,2,2-2,3.83-3.85,5.74-5.7a2,2,0,0,0,.66-1.61q0-5.67,0-11.35A1.36,1.36,0,0,0,3068,680.1Z"/><path class="cls-15" d="M3094.09,677.08a1.64,1.64,0,0,0-.24-1c-.54-.64-1.18-1.21-1.85-1.88-2.08,2.08-4.06,4-6,6a1.33,1.33,0,0,0-.33.81c0,3.88,0,7.77,0,11.65a1.64,1.64,0,0,0,.55,1.25c1.8,1.77,3.57,3.56,5.36,5.33.16.16.35.28.49.4.54-.52,1-1,1.53-1.46a1.77,1.77,0,0,0,.56-1.45c0-4.74,0-9.48,0-14.21C3094.1,680.76,3094.11,678.92,3094.09,677.08Z"/><path class="cls-15" d="M3062.72,700.41c-.18-.18-.39-.34-.71-.62A9.57,9.57,0,0,1,3061,701a2.54,2.54,0,0,0-.92,2.22c0,4.77,0,9.54,0,14.31v5.11a1.25,1.25,0,0,0,.33,1c.55.55,1.07,1.13,1.61,1.71a2.43,2.43,0,0,0,.37-.19c1.93-1.92,3.85-3.86,5.79-5.77a1.38,1.38,0,0,0,.36-1.12c0-3.74,0-7.49,0-11.24a1.8,1.8,0,0,0-.59-1.43C3066.18,703.89,3064.46,702.14,3062.72,700.41Z"/><path class="cls-15" d="M3094.09,713.79c0-3.75,0-7.51,0-11.26a1.48,1.48,0,0,0-.24-.84c-.56-.63-1.18-1.21-1.78-1.8a1.67,1.67,0,0,0-.31.2c-1.91,1.9-3.8,3.81-5.72,5.7a1.46,1.46,0,0,0-.41,1.19q0,5.63,0,11.25a1.82,1.82,0,0,0,.62,1.42c1.73,1.69,3.43,3.42,5.14,5.13.19.18.39.35.65.58.49-.48.92-1,1.41-1.38a1.89,1.89,0,0,0,.67-1.61C3094.08,719.51,3094.09,716.65,3094.09,713.79Z"/><path class="cls-15" d="M3082.7,721.16c-3.75,0-7.49,0-11.24,0a1.72,1.72,0,0,0-1.35.55c-1.74,1.78-3.51,3.52-5.26,5.28-.17.17-.31.35-.51.58.51.51,1,1,1.45,1.48a1.67,1.67,0,0,0,1.42.6c1.94,0,3.89,0,5.83,0h14.1a1.17,1.17,0,0,0,.76-.18c.66-.6,1.27-1.27,2-2-2-1.95-3.95-3.81-5.86-5.71A1.77,1.77,0,0,0,3082.7,721.16Z"/><path class="cls-15" d="M3083.81,695.92a1.41,1.41,0,0,0-.91-.33q-5.82,0-11.63,0a1.32,1.32,0,0,0-.84.26c-1.34,1.29-2.65,2.62-4,4,1.36,1.35,2.65,2.66,4,3.93a1.36,1.36,0,0,0,.82.29c.71,0,1.43,0,2.14,0,3.17,0,6.33,0,9.5,0a1.39,1.39,0,0,0,.92-.29c1.33-1.26,2.61-2.57,4-3.94C3086.36,698.45,3085.11,697.17,3083.81,695.92Z"/><rect class="cls-15" x="3008.64" y="720.06" width="9.09" height="9.09"/></g></g></svg>